<?xml version="1.0" encoding="UTF-8"?>
<svg height="16px" viewBox="0 0 16 16" width="16px" xmlns="http://www.w3.org/2000/svg">
    <g stroke="#000000">
        <path d="m 6.011719 2.296875 h 4.046875 c 0.203125 0 0.367187 0.175781 0.367187 0.390625 v 4.132812 c 0 0.214844 -0.164062 0.394532 -0.367187 0.394532 h -4.046875 c -0.203125 0 -0.371094 -0.179688 -0.371094 -0.394532 v -4.132812 c 0 -0.214844 0.167969 -0.390625 0.371094 -0.390625 z m 0 0" stroke-width="0.882167"/>
        <path d="m 1.363281 2.140625 h 1.609375 c 0.082032 0 0.148438 0.1875 0.148438 0.417969 v 4.390625 c 0 0.230469 -0.066406 0.417969 -0.148438 0.417969 h -1.609375 c -0.078125 0 -0.144531 -0.1875 -0.144531 -0.417969 v -4.390625 c 0 -0.230469 0.066406 -0.417969 0.144531 -0.417969 z m 0 0" stroke-width="0.573315"/>
        <path d="m 13.097656 2.144531 h 1.636719 c 0.082031 0 0.148437 0.1875 0.148437 0.417969 v 4.386719 c 0 0.230469 -0.066406 0.417969 -0.148437 0.417969 h -1.636719 c -0.082031 0 -0.148437 -0.1875 -0.148437 -0.417969 v -4.386719 c 0 -0.230469 0.066406 -0.417969 0.148437 -0.417969 z m 0 0" stroke-width="0.577979"/>
        <g stroke-width="0.910826">
            <path d="m 1.78125 9.671875 h 4.339844 c 0.21875 0 0.394531 0.175781 0.394531 0.390625 v 4.105469 c 0 0.214843 -0.175781 0.390625 -0.394531 0.390625 h -4.339844 c -0.21875 0 -0.394531 -0.175782 -0.394531 -0.390625 v -4.105469 c 0 -0.214844 0.175781 -0.390625 0.394531 -0.390625 z m 0 0"/>
            <path d="m 9.984375 9.671875 h 4.339844 c 0.21875 0 0.394531 0.175781 0.394531 0.390625 v 4.105469 c 0 0.214843 -0.175781 0.390625 -0.394531 0.390625 h -4.339844 c -0.21875 0 -0.394531 -0.175782 -0.394531 -0.390625 v -4.105469 c 0 -0.214844 0.175781 -0.390625 0.394531 -0.390625 z m 0 0"/>
        </g>
    </g>
</svg>
