<?xml version="1.0" encoding="UTF-8"?>
<svg width="128px" height="128px" version="1.1" viewBox="0 0 128 128" xmlns="http://www.w3.org/2000/svg" xmlns:xlink="http://www.w3.org/1999/xlink">
 <linearGradient id="a" gradientUnits="userSpaceOnUse">
  <stop stop-color="#2ec27e" offset="0"/>
  <stop stop-color="#57e389" offset=".038462"/>
  <stop stop-color="#26a269" offset=".076856"/>
  <stop stop-color="#26a269" offset=".92308"/>
  <stop stop-color="#57e389" offset=".96154"/>
  <stop stop-color="#2ec27e" offset="1"/>
 </linearGradient>
 <linearGradient id="b" x1="88.596" x2="536.6" y1="-449.39" y2="-449.39" gradientTransform="matrix(.13765 0 0 .20648 20.098 165.26)" xlink:href="#a"/>
 <linearGradient id="c" x1="88.596" x2="536.6" y1="-449.39" y2="-449.39" gradientTransform="matrix(.13765 0 0 .20648 52.532 219.26)" gradientUnits="userSpaceOnUse">
  <stop stop-color="#999" offset="0"/>
  <stop stop-color="#646361" offset=".076856"/>
  <stop stop-color="#646361" offset=".92308"/>
  <stop stop-color="#999" offset="1"/>
 </linearGradient>
 <linearGradient id="d" x1="88.596" x2="536.6" y1="-449.39" y2="-449.39" gradientTransform="matrix(.13765 0 0 .20648 52.532 165.26)" gradientUnits="userSpaceOnUse">
  <stop stop-color="#787878" offset=".5"/>
  <stop stop-color="#585855" offset=".58"/>
  <stop stop-color="#585855" offset=".92308"/>
  <stop stop-color="#787878" offset="1"/>
 </linearGradient>
 <linearGradient id="e" x1="88.596" x2="536.6" y1="-449.39" y2="-449.39" gradientTransform="matrix(.13765 0 0 .20648 -42.783 165.26)" gradientUnits="userSpaceOnUse">
  <stop stop-color="#b8b8b8" offset=".49756"/>
  <stop stop-color="#8b8987" offset=".58"/>
  <stop stop-color="#8b8a89" offset=".92308"/>
  <stop stop-color="#b8b8b8" offset="1"/>
 </linearGradient>
 <linearGradient id="f" x1="88.596" x2="536.6" y1="-449.39" y2="-449.39" gradientTransform="matrix(.13765 0 0 .20648 -10.989 219.26)" xlink:href="#a"/>
 <g stroke-width=".97502">
  <path d="m37.037 9.7h52.179c2.6204 0 4.7456 2.2471 4.7456 5.0236v52.727c0 2.7727-2.1252 5.0198-4.7456 5.0198h-52.179c-2.6204 0-4.7456-2.2471-4.7456-5.0198v-52.727c0-2.7765 2.1252-5.0236 4.7456-5.0236z" fill="url(#b)"/>
  <path d="m69.472 63.703h52.179c2.6204 0 4.7456 2.2471 4.7456 5.0198v52.727c0 2.7727-2.1252 5.0236-4.7456 5.0236h-52.179c-2.6204 0-4.7456-2.2509-4.7456-5.0236v-52.727c0-2.7727 2.1252-5.0198 4.7456-5.0198z" fill="url(#c)"/>
  <path d="m101.27 9.7h20.384c2.6204 0 4.7456 2.2471 4.7456 5.0198v52.727c0 2.7727-2.1252 5.0236-4.7456 5.0236h-20.384c-2.6204 0-4.7456-2.2509-4.7456-5.0236v-52.727c0-2.7727 2.1252-5.0198 4.7456-5.0198z" fill="url(#d)"/>
  <path d="m101.27 7.3386h20.384c2.6204 0 4.7456 1.8396 4.7456 4.1096v43.148c0 2.2662-2.1252 4.1058-4.7456 4.1058h-20.384c-2.6204 0-4.7456-1.8396-4.7456-4.1058v-43.148c0-2.27 2.1252-4.1096 4.7456-4.1096z" fill="#818181"/>
  <path d="m5.9508 9.7h19.257c2.6204 0 4.7456 2.2471 4.7456 5.0198v52.727c0 2.7727-2.1252 5.0236-4.7456 5.0236h-19.257c-2.6204 0-4.7456-2.2509-4.7456-5.0236v-52.727c0-2.7727 2.1252-5.0198 4.7456-5.0198z" fill="url(#e)"/>
  <path d="m5.9508 7.3386h19.257c2.6204 0 4.7456 1.8396 4.7456 4.1096v43.148c0 2.2662-2.1252 4.1058-4.7456 4.1058h-19.257c-2.6204 0-4.7456-1.8396-4.7456-4.1058v-43.148c0-2.27 2.1252-4.1096 4.7456-4.1096z" fill="#bebebe"/>
  <path d="m69.472 61.342h52.179c2.6204 0 4.7456 1.8396 4.7456 4.1096v43.148c0 2.2662-2.1252 4.1057-4.7456 4.1057h-52.179c-2.6204 0-4.7456-1.8396-4.7456-4.1057v-43.148c0-2.27 2.1252-4.1096 4.7456-4.1096z" fill="#a7a7a7"/>
  <path d="m5.9508 63.703h51.558c2.6204 0 4.7456 2.2471 4.7456 5.0198v52.727c0 2.7727-2.1252 5.0236-4.7456 5.0236h-51.558c-2.6204 0-4.7456-2.2509-4.7456-5.0236v-52.727c0-2.7727 2.1252-5.0198 4.7456-5.0198z" fill="url(#f)"/>
  <path d="m5.9508 61.342h51.558c2.6204 0 4.7456 1.8396 4.7456 4.1096v43.148c0 2.2662-2.1252 4.1057-4.7456 4.1057h-51.558c-2.6204 0-4.7456-1.8396-4.7456-4.1057v-43.148c0-2.27 2.1252-4.1096 4.7456-4.1096z" fill="#8ff0a4"/>
  <path d="m21.479 80.873v4.6656h4.5057c-0.1295 0 0.19805 0.36944 0.19805 0.19043v2.1557h-2.3576c-4.0258 0-7.1108 2.6242-7.1679 5.7968-0.02666 1.5844 0.71984 3.1764 2.0224 4.2467 1.3026 1.074 3.085 1.6339 5.1455 1.6339h7.0499v-13.833c0-2.7308-2.0795-4.8561-4.8903-4.8561zm2.3461 11.677h2.3576v2.3461h-2.3576c-1.2188 0-1.8624-0.31993-2.1557-0.56749-0.29708-0.23995-0.31993-0.39991-0.31993-0.56749 0.0076-0.33516 0.20186-1.215 2.4756-1.215zm9.3808-14.039v21.051h7.0499c2.2014 0 4.1515-0.86838 5.3931-2.2395 1.2454-1.3673 1.7977-3.1155 1.7748-4.818-0.01143-1.7634-0.67033-3.4583-1.8548-4.7685-1.2378-1.3445-3.1536-2.2243-5.3131-2.2243h-2.3576v-7.0003zm4.6923 11.666h2.3576c0.99026 0 1.4663 0.29327 1.8472 0.7046 0.37706 0.41514 0.61701 1.0436 0.62843 1.6834 0.0076 0.64366-0.20948 1.2378-0.56368 1.6301-0.35802 0.38849-0.8341 0.7008-1.912 0.7008h-2.3576z" fill="#26a269" fill-opacity=".63922"/>
  <path d="m37.037 7.3386h52.179c2.6204 0 4.7456 1.8396 4.7456 4.1096v43.145c0 2.27-2.1252 4.1096-4.7456 4.1096h-52.179c-2.6204 0-4.7456-1.8396-4.7456-4.1096v-43.145c0-2.27 2.1252-4.1096 4.7456-4.1096z" fill="#8ff0a4"/>
  <path d="m54.344 17.066c-0.47608-0.01904-0.95217 0.05713-1.3749 0.22852-1.135 0.46466-2.0529 1.6872-2.0529 3.0546v25.659c0 1.3673 0.93693 2.5785 2.0719 3.0355 1.1274 0.44561 2.6508 0.20186 3.5954-0.7922l4.0486-4.2581 3.5573 7.0727c0.87219 1.7329 2.9898 2.4337 4.7228 1.5768 1.7406-0.86457 2.449-2.9708 1.5844-4.6923l-3.325-6.6081h4.8675c1.3749 0 2.6013-0.91027 3.0622-2.0414 0.46466-1.1198 0.25518-2.6242-0.71603-3.5878l-17.802-17.699c-0.60558-0.60177-1.4321-0.91027-2.2395-0.94836z" fill="#26a269" fill-opacity=".63922"/>
  <path d="m84.985 74.554c-2.0948 0-3.843 1.7482-3.843 3.8468v5.7663c0 2.0986 1.7482 3.8468 3.843 3.8468h5.7701c2.0948 0 3.8468-1.7482 3.8468-3.8468v-5.7663c0-2.0986-1.752-3.8468-3.8468-3.8468zm15.383 0c-2.0948 0-3.843 1.7482-3.843 3.8468v5.7663c0 2.0986 1.7482 3.8468 3.843 3.8468h5.7701c2.0948 0 3.8468-1.7482 3.8468-3.8468v-5.7663c0-2.0986-1.752-3.8468-3.8468-3.8468zm-15.383 3.8468h5.7701v5.7663h-5.7701zm15.383 0h5.7701v5.7663h-5.7701zm-15.383 11.536c-2.0948 0-3.843 1.7482-3.843 3.8468v5.7663c0 2.0948 1.7482 3.8468 3.843 3.8468h5.7701c2.0948 0 3.8468-1.752 3.8468-3.8468v-5.7663c0-2.0986-1.752-3.8468-3.8468-3.8468zm15.383 0c-2.0948 0-3.843 1.7482-3.843 3.8468v5.7663c0 2.0948 1.7482 3.8468 3.843 3.8468h5.7701c2.0948 0 3.8468-1.752 3.8468-3.8468v-5.7663c0-2.0986-1.752-3.8468-3.8468-3.8468zm-15.383 3.8468h5.7701v5.7663h-5.7701zm15.383 0h5.7701v5.7663h-5.7701z" fill="#222" fill-opacity=".51373"/>
 </g>
</svg>
