<?xml version="1.0" encoding="UTF-8"?>
<svg height="128px" viewBox="0 0 128 128" width="128px" xmlns="http://www.w3.org/2000/svg" xmlns:xlink="http://www.w3.org/1999/xlink">
    <linearGradient id="a" gradientUnits="userSpaceOnUse">
        <stop offset="0" stop-color="#2ec27e"/>
        <stop offset="0.0384615" stop-color="#57e389"/>
        <stop offset="0.0768555" stop-color="#26a269"/>
        <stop offset="0.923077" stop-color="#26a269"/>
        <stop offset="0.961538" stop-color="#57e389"/>
        <stop offset="1" stop-color="#2ec27e"/>
    </linearGradient>
    <linearGradient id="b" gradientTransform="matrix(0.135391 0 0 0.20309 20.815577 163.646912)" x1="88.595886" x2="536.595886" xlink:href="#a" y1="-449.394012" y2="-449.394012"/>
    <linearGradient id="c" gradientTransform="matrix(0.135391 0 0 0.20309 52.717457 216.761139)" gradientUnits="userSpaceOnUse" x1="88.595886" x2="536.595886" y1="-449.394012" y2="-449.394012">
        <stop offset="0" stop-color="#999999"/>
        <stop offset="0.0768555" stop-color="#646361"/>
        <stop offset="0.923077" stop-color="#646361"/>
        <stop offset="1" stop-color="#999999"/>
    </linearGradient>
    <linearGradient id="d" gradientTransform="matrix(0.135391 0 0 0.20309 52.717464 163.646973)" gradientUnits="userSpaceOnUse" x1="88.595886" x2="536.595886" y1="-449.394012" y2="-449.394012">
        <stop offset="0.5" stop-color="#787878"/>
        <stop offset="0.58" stop-color="#585855"/>
        <stop offset="0.923077" stop-color="#585855"/>
        <stop offset="1" stop-color="#787878"/>
    </linearGradient>
    <linearGradient id="e" gradientTransform="matrix(0.135391 0 0 0.20309 -41.031944 163.646973)" gradientUnits="userSpaceOnUse" x1="88.595886" x2="536.595886" y1="-449.394012" y2="-449.394012">
        <stop offset="0.497563" stop-color="#b8b8b8"/>
        <stop offset="0.58" stop-color="#8b8987"/>
        <stop offset="0.923077" stop-color="#8b8a89"/>
        <stop offset="1" stop-color="#b8b8b8"/>
    </linearGradient>
    <linearGradient id="f" gradientTransform="matrix(0.135391 0 0 0.20309 -9.760395 216.761139)" x1="88.595886" x2="536.595886" xlink:href="#a" y1="-449.394012" y2="-449.394012"/>
    <path d="m 37.476562 10.640625 h 51.320313 c 2.578125 0 4.667969 2.210937 4.667969 4.941406 v 51.859375 c 0 2.726563 -2.089844 4.9375 -4.667969 4.9375 h -51.320313 c -2.578124 0 -4.667968 -2.210937 -4.667968 -4.9375 v -51.859375 c 0 -2.730469 2.089844 -4.941406 4.667968 -4.941406 z m 0 0" fill="url(#b)"/>
    <path d="m 69.378906 63.753906 h 51.320313 c 2.578125 0 4.667969 2.210938 4.667969 4.9375 v 51.863282 c 0 2.726562 -2.089844 4.941406 -4.667969 4.941406 h -51.320313 c -2.578125 0 -4.667968 -2.214844 -4.667968 -4.941406 v -51.863282 c 0 -2.726562 2.089843 -4.9375 4.667968 -4.9375 z m 0 0" fill="url(#c)"/>
    <path d="m 100.652344 10.640625 h 20.046875 c 2.578125 0 4.667969 2.210937 4.667969 4.9375 v 51.863281 c 0 2.726563 -2.089844 4.941406 -4.667969 4.941406 h -20.046875 c -2.578125 0 -4.667969 -2.214843 -4.667969 -4.941406 v -51.863281 c 0 -2.726563 2.089844 -4.9375 4.667969 -4.9375 z m 0 0" fill="url(#d)"/>
    <path d="m 100.652344 8.320312 h 20.046875 c 2.578125 0 4.667969 1.808594 4.667969 4.039063 v 42.441406 c 0 2.230469 -2.089844 4.039063 -4.667969 4.039063 h -20.046875 c -2.578125 0 -4.667969 -1.808594 -4.667969 -4.039063 v -42.441406 c 0 -2.230469 2.089844 -4.039063 4.667969 -4.039063 z m 0 0" fill="#818181"/>
    <path d="m 6.902344 10.640625 h 18.9375 c 2.578125 0 4.667968 2.210937 4.667968 4.9375 v 51.863281 c 0 2.726563 -2.089843 4.941406 -4.667968 4.941406 h -18.9375 c -2.578125 0 -4.667969 -2.214843 -4.667969 -4.941406 v -51.863281 c 0 -2.726563 2.089844 -4.9375 4.667969 -4.9375 z m 0 0" fill="url(#e)"/>
    <path d="m 6.902344 8.320312 h 18.9375 c 2.578125 0 4.667968 1.808594 4.667968 4.039063 v 42.441406 c 0 2.230469 -2.089843 4.039063 -4.667968 4.039063 h -18.9375 c -2.578125 0 -4.667969 -1.808594 -4.667969 -4.039063 v -42.441406 c 0 -2.230469 2.089844 -4.039063 4.667969 -4.039063 z m 0 0" fill="#bebebe"/>
    <path d="m 69.378906 61.433594 h 51.320313 c 2.578125 0 4.667969 1.808594 4.667969 4.042968 v 42.4375 c 0 2.230469 -2.089844 4.039063 -4.667969 4.039063 h -51.320313 c -2.578125 0 -4.667968 -1.808594 -4.667968 -4.039063 v -42.4375 c 0 -2.234374 2.089843 -4.042968 4.667968 -4.042968 z m 0 0" fill="#a7a7a7"/>
    <path d="m 6.902344 63.753906 h 50.710937 c 2.574219 0 4.664063 2.210938 4.664063 4.9375 v 51.863282 c 0 2.726562 -2.089844 4.941406 -4.664063 4.941406 h -50.710937 c -2.578125 0 -4.667969 -2.214844 -4.667969 -4.941406 v -51.863282 c 0 -2.726562 2.089844 -4.9375 4.667969 -4.9375 z m 0 0" fill="url(#f)"/>
    <path d="m 6.902344 61.433594 h 50.710937 c 2.574219 0 4.664063 1.808594 4.664063 4.042968 v 42.4375 c 0 2.230469 -2.089844 4.039063 -4.664063 4.039063 h -50.710937 c -2.578125 0 -4.667969 -1.808594 -4.667969 -4.039063 v -42.4375 c 0 -2.234374 2.089844 -4.042968 4.667969 -4.042968 z m 0 0" fill="#8ff0a4"/>
    <path d="m 22.175781 80.644531 v 4.585938 h 4.429688 c -0.128907 0 0.195312 0.363281 0.195312 0.1875 v 2.121093 h -2.320312 c -3.957031 0 -6.992188 2.582032 -7.050781 5.703126 c -0.023438 1.558593 0.710937 3.125 1.992187 4.175781 c 1.28125 1.058593 3.03125 1.605469 5.058594 1.605469 h 6.933593 v -13.605469 c 0 -2.683594 -2.042968 -4.773438 -4.808593 -4.773438 z m 2.304688 11.484375 h 2.320312 v 2.308594 h -2.320312 c -1.199219 0 -1.832031 -0.316406 -2.117188 -0.558594 c -0.292969 -0.238281 -0.316406 -0.394531 -0.316406 -0.558594 c 0.007813 -0.328124 0.199219 -1.195312 2.433594 -1.195312 z m 9.226562 -13.808594 v 20.703126 h 6.933594 c 2.167969 0 4.085937 -0.851563 5.304687 -2.199219 c 1.226563 -1.347657 1.769532 -3.066407 1.746094 -4.742188 c -0.011718 -1.734375 -0.65625 -3.398437 -1.824218 -4.6875 c -1.214844 -1.324219 -3.101563 -2.1875 -5.226563 -2.1875 h -2.316406 v -6.886719 z m 4.617188 11.476563 h 2.316406 c 0.976563 0 1.445313 0.285156 1.820313 0.691406 c 0.367187 0.40625 0.605468 1.027344 0.617187 1.65625 c 0.007813 0.632813 -0.207031 1.214844 -0.554687 1.601563 c -0.351563 0.382812 -0.820313 0.691406 -1.882813 0.691406 h -2.316406 z m 0 0" fill="#26a269" fill-opacity="0.639216"/>
    <path d="m 37.476562 8.320312 h 51.320313 c 2.578125 0 4.667969 1.808594 4.667969 4.039063 v 42.4375 c 0 2.234375 -2.089844 4.042969 -4.667969 4.042969 h -51.320313 c -2.578124 0 -4.667968 -1.808594 -4.667968 -4.042969 v -42.4375 c 0 -2.230469 2.089844 -4.039063 4.667968 -4.039063 z m 0 0" fill="#8ff0a4"/>
    <path d="m 54.5 17.882812 c -0.46875 -0.015624 -0.9375 0.058594 -1.351562 0.226563 c -1.117188 0.457031 -2.019532 1.660156 -2.019532 3.003906 v 25.238281 c 0 1.34375 0.921875 2.535157 2.035156 2.984376 c 1.109376 0.4375 2.609376 0.199218 3.539063 -0.777344 l 3.980469 -4.1875 l 3.5 6.957031 c 0.855468 1.703125 2.941406 2.390625 4.644531 1.550781 c 1.710937 -0.851562 2.410156 -2.921875 1.558594 -4.617187 l -3.269531 -6.5 h 4.785156 c 1.355468 0 2.558594 -0.894531 3.011718 -2.007813 c 0.457032 -1.101562 0.253907 -2.582031 -0.703124 -3.527344 l -17.507813 -17.410156 c -0.597656 -0.589844 -1.410156 -0.894531 -2.203125 -0.933594 z m 0 0" fill="#26a269" fill-opacity="0.639216"/>
    <path d="m 84.636719 74.429688 c -2.058594 0 -3.78125 1.71875 -3.78125 3.78125 v 5.671874 c 0 2.066407 1.722656 3.785157 3.78125 3.785157 h 5.675781 c 2.058594 0 3.78125 -1.71875 3.78125 -3.785157 v -5.671874 c 0 -2.0625 -1.722656 -3.78125 -3.78125 -3.78125 z m 15.128906 0 c -2.058594 0 -3.777344 1.71875 -3.777344 3.78125 v 5.671874 c 0 2.066407 1.71875 3.785157 3.777344 3.785157 h 5.675781 c 2.0625 0 3.785156 -1.71875 3.785156 -3.785157 v -5.671874 c 0 -2.0625 -1.722656 -3.78125 -3.785156 -3.78125 z m -15.128906 3.78125 h 5.675781 v 5.671874 h -5.675781 z m 15.128906 0 h 5.675781 v 5.671874 h -5.675781 z m -15.128906 11.347656 c -2.058594 0 -3.78125 1.71875 -3.78125 3.785156 v 5.671875 c 0 2.058594 1.722656 3.78125 3.78125 3.78125 h 5.675781 c 2.058594 0 3.78125 -1.722656 3.78125 -3.78125 v -5.671875 c 0 -2.066406 -1.722656 -3.785156 -3.78125 -3.785156 z m 15.128906 0 c -2.058594 0 -3.777344 1.71875 -3.777344 3.785156 v 5.671875 c 0 2.058594 1.71875 3.78125 3.777344 3.78125 h 5.675781 c 2.0625 0 3.785156 -1.722656 3.785156 -3.78125 v -5.671875 c 0 -2.066406 -1.722656 -3.785156 -3.785156 -3.785156 z m -15.128906 3.785156 h 5.675781 v 5.671875 h -5.675781 z m 15.128906 0 h 5.675781 v 5.671875 h -5.675781 z m 0 0" fill="#222222" fill-opacity="0.513726"/>
</svg>
