<?xml version="1.0" encoding="UTF-8"?>
<svg height="128px" viewBox="0 0 128 128" width="128px" xmlns="http://www.w3.org/2000/svg" xmlns:xlink="http://www.w3.org/1999/xlink">
    <filter id="a" height="100%" width="100%" x="0%" y="0%">
        <feColorMatrix color-interpolation-filters="sRGB" values="0 0 0 0 1 0 0 0 0 1 0 0 0 0 1 0 0 0 1 0"/>
    </filter>
    <linearGradient id="b" gradientUnits="userSpaceOnUse">
        <stop offset="0" stop-color="#2ec27e"/>
        <stop offset="0.0384615" stop-color="#57e389"/>
        <stop offset="0.0768555" stop-color="#26a269"/>
        <stop offset="0.923077" stop-color="#26a269"/>
        <stop offset="0.961538" stop-color="#57e389"/>
        <stop offset="1" stop-color="#2ec27e"/>
    </linearGradient>
    <linearGradient id="c" gradientTransform="matrix(0.113263 0 0 0.180402 28.040285 150.470428)" x1="88.595886" x2="536.595886" xlink:href="#b" y1="-449.394012" y2="-449.394012"/>
    <linearGradient id="d" gradientTransform="matrix(0.113263 0 0 0.180402 54.728149 197.65094)" gradientUnits="userSpaceOnUse" x1="88.595886" x2="536.595886" y1="-449.394012" y2="-449.394012">
        <stop offset="0" stop-color="#999999"/>
        <stop offset="0.0768555" stop-color="#646361"/>
        <stop offset="0.923077" stop-color="#646361"/>
        <stop offset="1" stop-color="#999999"/>
    </linearGradient>
    <linearGradient id="e" gradientTransform="matrix(0.113263 0 0 0.180402 54.728161 150.47049)" gradientUnits="userSpaceOnUse" x1="88.595886" x2="536.595886" y1="-449.394012" y2="-449.394012">
        <stop offset="0.5" stop-color="#787878"/>
        <stop offset="0.58" stop-color="#585855"/>
        <stop offset="0.923077" stop-color="#585855"/>
        <stop offset="1" stop-color="#787878"/>
    </linearGradient>
    <linearGradient id="f" gradientTransform="matrix(0.113263 0 0 0.180402 -23.698938 150.47049)" gradientUnits="userSpaceOnUse" x1="88.595886" x2="536.595886" y1="-449.394012" y2="-449.394012">
        <stop offset="0.497563" stop-color="#b8b8b8"/>
        <stop offset="0.58" stop-color="#8b8987"/>
        <stop offset="0.923077" stop-color="#8b8a89"/>
        <stop offset="1" stop-color="#b8b8b8"/>
    </linearGradient>
    <linearGradient id="g" gradientTransform="matrix(0.113263 0 0 0.180402 2.461619 197.65094)" x1="88.595886" x2="536.595886" xlink:href="#b" y1="-449.394012" y2="-449.394012"/>
    <clipPath id="h">
        <rect height="128" width="128"/>
    </clipPath>
    <clipPath id="i">
        <rect height="128" width="128"/>
    </clipPath>
    <mask id="j">
        <g filter="url(#a)">
            <g clip-path="url(#i)" filter="url(#a)">
                <g clip-path="url(#h)">
                    <path d="m 41.976562 14.558594 h 42.9375 c 2.152344 0 3.902344 1.960937 3.902344 4.386718 v 46.066407 c 0 2.425781 -1.75 4.386719 -3.902344 4.386719 h -42.9375 c -2.152343 0 -3.902343 -1.960938 -3.902343 -4.386719 v -46.066407 c 0 -2.425781 1.75 -4.386718 3.902343 -4.386718 z m 0 0" fill="url(#c)"/>
                    <path d="m 68.667969 61.738281 h 42.933593 c 2.15625 0 3.902344 1.964844 3.902344 4.386719 v 46.066406 c 0 2.421875 -1.746094 4.390625 -3.902344 4.390625 h -42.933593 c -2.15625 0 -3.90625 -1.96875 -3.90625 -4.390625 v -46.066406 c 0 -2.421875 1.75 -4.386719 3.90625 -4.386719 z m 0 0" fill="url(#d)"/>
                    <path d="m 94.828125 14.558594 h 16.773437 c 2.15625 0 3.902344 1.964844 3.902344 4.386718 v 46.066407 c 0 2.421875 -1.746094 4.390625 -3.902344 4.390625 h -16.773437 c -2.15625 0 -3.90625 -1.96875 -3.90625 -4.390625 v -46.066407 c 0 -2.421874 1.75 -4.386718 3.90625 -4.386718 z m 0 0" fill="url(#e)"/>
                    <path d="m 94.828125 12.496094 h 16.773437 c 2.15625 0 3.902344 1.605468 3.902344 3.589844 v 37.699218 c 0 1.980469 -1.746094 3.585938 -3.902344 3.585938 h -16.773437 c -2.15625 0 -3.90625 -1.605469 -3.90625 -3.585938 v -37.699218 c 0 -1.984376 1.75 -3.589844 3.90625 -3.589844 z m 0 0" fill="#818181"/>
                    <path d="m 16.398438 14.558594 h 15.847656 c 2.15625 0 3.902344 1.964844 3.902344 4.386718 v 46.066407 c 0 2.421875 -1.746094 4.390625 -3.902344 4.390625 h -15.847656 c -2.15625 0 -3.902344 -1.96875 -3.902344 -4.390625 v -46.066407 c 0 -2.421874 1.746094 -4.386718 3.902344 -4.386718 z m 0 0" fill="url(#f)"/>
                    <path d="m 16.398438 12.496094 h 15.847656 c 2.15625 0 3.902344 1.605468 3.902344 3.589844 v 37.699218 c 0 1.980469 -1.746094 3.585938 -3.902344 3.585938 h -15.847656 c -2.15625 0 -3.902344 -1.605469 -3.902344 -3.585938 v -37.699218 c 0 -1.984376 1.746094 -3.589844 3.902344 -3.589844 z m 0 0" fill="#bebebe"/>
                    <path d="m 68.667969 59.675781 h 42.933593 c 2.15625 0 3.902344 1.605469 3.902344 3.589844 v 37.699219 c 0 1.980468 -1.746094 3.585937 -3.902344 3.585937 h -42.933593 c -2.15625 0 -3.90625 -1.605469 -3.90625 -3.585937 v -37.699219 c 0 -1.984375 1.75 -3.589844 3.90625 -3.589844 z m 0 0" fill="#a7a7a7"/>
                    <path d="m 16.398438 61.738281 h 42.421874 c 2.15625 0 3.90625 1.964844 3.90625 4.386719 v 46.066406 c 0 2.421875 -1.75 4.390625 -3.90625 4.390625 h -42.421874 c -2.15625 0 -3.902344 -1.96875 -3.902344 -4.390625 v -46.066406 c 0 -2.421875 1.746094 -4.386719 3.902344 -4.386719 z m 0 0" fill="url(#g)"/>
                    <path d="m 16.398438 59.675781 h 42.421874 c 2.15625 0 3.90625 1.605469 3.90625 3.589844 v 37.699219 c 0 1.980468 -1.75 3.585937 -3.90625 3.585937 h -42.421874 c -2.15625 0 -3.902344 -1.605469 -3.902344 -3.585937 v -37.699219 c 0 -1.984375 1.746094 -3.589844 3.902344 -3.589844 z m 0 0" fill="#8ff0a4"/>
                    <path d="m 29.175781 77.058594 v 3.839844 h 3.707031 c -0.105468 0 0.164063 0.304687 0.164063 0.15625 v 1.773437 h -1.941406 c -3.3125 0 -5.847657 2.160156 -5.894531 4.769531 c -0.023438 1.304688 0.589843 2.613282 1.664062 3.496094 c 1.070312 0.882812 2.535156 1.34375 4.230469 1.34375 h 5.800781 v -11.382812 c 0 -2.246094 -1.710938 -3.996094 -4.023438 -3.996094 z m 1.929688 9.609375 h 1.941406 v 1.929687 h -1.941406 c -1 0 -1.53125 -0.261718 -1.773438 -0.464844 c -0.242187 -0.199218 -0.261719 -0.332031 -0.261719 -0.46875 c 0.007813 -0.273437 0.164063 -1 2.035157 -1 z m 7.71875 -11.550781 v 17.320312 h 5.800781 c 1.8125 0 3.417969 -0.714844 4.4375 -1.84375 c 1.027344 -1.125 1.480469 -2.5625 1.460938 -3.964844 c -0.007813 -1.449218 -0.550782 -2.84375 -1.523438 -3.921875 c -1.019531 -1.105469 -2.597656 -1.832031 -4.375 -1.832031 h -1.9375 v -5.757812 z m 3.863281 9.597656 h 1.9375 c 0.816406 0 1.207031 0.242187 1.523438 0.582031 c 0.308593 0.339844 0.503906 0.855469 0.515624 1.382813 c 0.007813 0.53125 -0.171874 1.019531 -0.464843 1.34375 c -0.292969 0.316406 -0.6875 0.574218 -1.574219 0.574218 h -1.9375 z m 0 0" fill="#26a269" fill-opacity="0.639216"/>
                    <path d="m 41.976562 12.496094 h 42.9375 c 2.152344 0 3.902344 1.605468 3.902344 3.589844 v 37.695312 c 0 1.984375 -1.75 3.589844 -3.902344 3.589844 h -42.9375 c -2.152343 0 -3.902343 -1.605469 -3.902343 -3.589844 v -37.695312 c 0 -1.984376 1.75 -3.589844 3.902343 -3.589844 z m 0 0" fill="#8ff0a4"/>
                    <path d="m 56.21875 20.558594 c -0.390625 -0.015625 -0.785156 0.046875 -1.132812 0.1875 c -0.933594 0.382812 -1.6875 1.386718 -1.6875 2.511718 v 21.113282 c 0 1.125 0.769531 2.121094 1.703124 2.5 c 0.929688 0.367187 2.183594 0.164062 2.960938 -0.652344 l 3.332031 -3.503906 l 2.925781 5.820312 c 0.71875 1.425782 2.460938 2 3.886719 1.296875 c 1.429688 -0.710937 2.015625 -2.445312 1.300781 -3.863281 l -2.734374 -5.433594 h 4.003906 c 1.132812 0 2.140625 -0.75 2.519531 -1.679687 c 0.382813 -0.921875 0.210937 -2.160157 -0.585937 -2.953125 l -14.648438 -14.5625 c -0.5 -0.496094 -1.179688 -0.75 -1.84375 -0.78125 z m 0 0" fill="#26a269" fill-opacity="0.639216"/>
                    <path d="m 81.429688 71.859375 c -1.722657 0 -3.160157 1.441406 -3.160157 3.167969 v 4.742187 c 0 1.726563 1.4375 3.164063 3.160157 3.164063 h 4.75 c 1.722656 0 3.164062 -1.4375 3.164062 -3.164063 v -4.742187 c 0 -1.726563 -1.441406 -3.167969 -3.164062 -3.167969 z m 12.660156 0 c -1.726563 0 -3.164063 1.441406 -3.164063 3.167969 v 4.742187 c 0 1.726563 1.4375 3.164063 3.164063 3.164063 h 4.746094 c 1.722656 0 3.164062 -1.4375 3.164062 -3.164063 v -4.742187 c 0 -1.726563 -1.441406 -3.167969 -3.164062 -3.167969 z m -12.660156 3.167969 h 4.75 v 4.742187 h -4.75 z m 12.660156 0 h 4.746094 v 4.742187 h -4.746094 z m -12.660156 9.492187 c -1.722657 0 -3.160157 1.4375 -3.160157 3.164063 v 4.746094 c 0 1.722656 1.4375 3.164062 3.160157 3.164062 h 4.75 c 1.722656 0 3.164062 -1.441406 3.164062 -3.164062 v -4.746094 c 0 -1.726563 -1.441406 -3.164063 -3.164062 -3.164063 z m 12.660156 0 c -1.726563 0 -3.164063 1.4375 -3.164063 3.164063 v 4.746094 c 0 1.722656 1.4375 3.164062 3.164063 3.164062 h 4.746094 c 1.722656 0 3.164062 -1.441406 3.164062 -3.164062 v -4.746094 c 0 -1.726563 -1.441406 -3.164063 -3.164062 -3.164063 z m -12.660156 3.164063 h 4.75 v 4.746094 h -4.75 z m 12.660156 0 h 4.746094 v 4.746094 h -4.746094 z m 0 0" fill="#222222" fill-opacity="0.513726"/>
                </g>
            </g>
        </g>
    </mask>
    <mask id="k">
        <g filter="url(#a)">
            <rect fill-opacity="0.8" height="184.32" width="184.32" x="-28.16" y="-28.16"/>
        </g>
    </mask>
    <linearGradient id="l" gradientTransform="matrix(0 0.37 -0.98462 0 295.38501 -30.360001)" gradientUnits="userSpaceOnUse" x1="300" x2="428" y1="235" y2="235">
        <stop offset="0" stop-color="#f9f06b"/>
        <stop offset="1" stop-color="#f5c211"/>
    </linearGradient>
    <clipPath id="m">
        <rect height="128" width="128"/>
    </clipPath>
    <clipPath id="n">
        <rect height="128" width="128"/>
    </clipPath>
    <path d="m 41.976562 14.558594 h 42.9375 c 2.152344 0 3.902344 1.960937 3.902344 4.386718 v 46.066407 c 0 2.425781 -1.75 4.386719 -3.902344 4.386719 h -42.9375 c -2.152343 0 -3.902343 -1.960938 -3.902343 -4.386719 v -46.066407 c 0 -2.425781 1.75 -4.386718 3.902343 -4.386718 z m 0 0" fill="url(#c)"/>
    <path d="m 68.667969 61.738281 h 42.933593 c 2.15625 0 3.902344 1.964844 3.902344 4.386719 v 46.066406 c 0 2.421875 -1.746094 4.390625 -3.902344 4.390625 h -42.933593 c -2.15625 0 -3.90625 -1.96875 -3.90625 -4.390625 v -46.066406 c 0 -2.421875 1.75 -4.386719 3.90625 -4.386719 z m 0 0" fill="url(#d)"/>
    <path d="m 94.828125 14.558594 h 16.773437 c 2.15625 0 3.902344 1.964844 3.902344 4.386718 v 46.066407 c 0 2.421875 -1.746094 4.390625 -3.902344 4.390625 h -16.773437 c -2.15625 0 -3.90625 -1.96875 -3.90625 -4.390625 v -46.066407 c 0 -2.421874 1.75 -4.386718 3.90625 -4.386718 z m 0 0" fill="url(#e)"/>
    <path d="m 94.828125 12.496094 h 16.773437 c 2.15625 0 3.902344 1.605468 3.902344 3.589844 v 37.699218 c 0 1.980469 -1.746094 3.585938 -3.902344 3.585938 h -16.773437 c -2.15625 0 -3.90625 -1.605469 -3.90625 -3.585938 v -37.699218 c 0 -1.984376 1.75 -3.589844 3.90625 -3.589844 z m 0 0" fill="#818181"/>
    <path d="m 16.398438 14.558594 h 15.847656 c 2.15625 0 3.902344 1.964844 3.902344 4.386718 v 46.066407 c 0 2.421875 -1.746094 4.390625 -3.902344 4.390625 h -15.847656 c -2.15625 0 -3.902344 -1.96875 -3.902344 -4.390625 v -46.066407 c 0 -2.421874 1.746094 -4.386718 3.902344 -4.386718 z m 0 0" fill="url(#f)"/>
    <path d="m 16.398438 12.496094 h 15.847656 c 2.15625 0 3.902344 1.605468 3.902344 3.589844 v 37.699218 c 0 1.980469 -1.746094 3.585938 -3.902344 3.585938 h -15.847656 c -2.15625 0 -3.902344 -1.605469 -3.902344 -3.585938 v -37.699218 c 0 -1.984376 1.746094 -3.589844 3.902344 -3.589844 z m 0 0" fill="#bebebe"/>
    <path d="m 68.667969 59.675781 h 42.933593 c 2.15625 0 3.902344 1.605469 3.902344 3.589844 v 37.699219 c 0 1.980468 -1.746094 3.585937 -3.902344 3.585937 h -42.933593 c -2.15625 0 -3.90625 -1.605469 -3.90625 -3.585937 v -37.699219 c 0 -1.984375 1.75 -3.589844 3.90625 -3.589844 z m 0 0" fill="#a7a7a7"/>
    <path d="m 16.398438 61.738281 h 42.421874 c 2.15625 0 3.90625 1.964844 3.90625 4.386719 v 46.066406 c 0 2.421875 -1.75 4.390625 -3.90625 4.390625 h -42.421874 c -2.15625 0 -3.902344 -1.96875 -3.902344 -4.390625 v -46.066406 c 0 -2.421875 1.746094 -4.386719 3.902344 -4.386719 z m 0 0" fill="url(#g)"/>
    <path d="m 16.398438 59.675781 h 42.421874 c 2.15625 0 3.90625 1.605469 3.90625 3.589844 v 37.699219 c 0 1.980468 -1.75 3.585937 -3.90625 3.585937 h -42.421874 c -2.15625 0 -3.902344 -1.605469 -3.902344 -3.585937 v -37.699219 c 0 -1.984375 1.746094 -3.589844 3.902344 -3.589844 z m 0 0" fill="#8ff0a4"/>
    <path d="m 29.175781 77.058594 v 3.839844 h 3.707031 c -0.105468 0 0.164063 0.304687 0.164063 0.15625 v 1.773437 h -1.941406 c -3.3125 0 -5.847657 2.160156 -5.894531 4.769531 c -0.023438 1.304688 0.589843 2.613282 1.664062 3.496094 c 1.070312 0.882812 2.535156 1.34375 4.230469 1.34375 h 5.800781 v -11.382812 c 0 -2.246094 -1.710938 -3.996094 -4.023438 -3.996094 z m 1.929688 9.609375 h 1.941406 v 1.929687 h -1.941406 c -1 0 -1.53125 -0.261718 -1.773438 -0.464844 c -0.242187 -0.199218 -0.261719 -0.332031 -0.261719 -0.46875 c 0.007813 -0.273437 0.164063 -1 2.035157 -1 z m 7.71875 -11.550781 v 17.320312 h 5.800781 c 1.8125 0 3.417969 -0.714844 4.4375 -1.84375 c 1.027344 -1.125 1.480469 -2.5625 1.460938 -3.964844 c -0.007813 -1.449218 -0.550782 -2.84375 -1.523438 -3.921875 c -1.019531 -1.105469 -2.597656 -1.832031 -4.375 -1.832031 h -1.9375 v -5.757812 z m 3.863281 9.597656 h 1.9375 c 0.816406 0 1.207031 0.242187 1.523438 0.582031 c 0.308593 0.339844 0.503906 0.855469 0.515624 1.382813 c 0.007813 0.53125 -0.171874 1.019531 -0.464843 1.34375 c -0.292969 0.316406 -0.6875 0.574218 -1.574219 0.574218 h -1.9375 z m 0 0" fill="#26a269" fill-opacity="0.639216"/>
    <path d="m 41.976562 12.496094 h 42.9375 c 2.152344 0 3.902344 1.605468 3.902344 3.589844 v 37.695312 c 0 1.984375 -1.75 3.589844 -3.902344 3.589844 h -42.9375 c -2.152343 0 -3.902343 -1.605469 -3.902343 -3.589844 v -37.695312 c 0 -1.984376 1.75 -3.589844 3.902343 -3.589844 z m 0 0" fill="#8ff0a4"/>
    <path d="m 56.21875 20.558594 c -0.390625 -0.015625 -0.785156 0.046875 -1.132812 0.1875 c -0.933594 0.382812 -1.6875 1.386718 -1.6875 2.511718 v 21.113282 c 0 1.125 0.769531 2.121094 1.703124 2.5 c 0.929688 0.367187 2.183594 0.164062 2.960938 -0.652344 l 3.332031 -3.503906 l 2.925781 5.820312 c 0.71875 1.425782 2.460938 2 3.886719 1.296875 c 1.429688 -0.710937 2.015625 -2.445312 1.300781 -3.863281 l -2.734374 -5.433594 h 4.003906 c 1.132812 0 2.140625 -0.75 2.519531 -1.679687 c 0.382813 -0.921875 0.210937 -2.160157 -0.585937 -2.953125 l -14.648438 -14.5625 c -0.5 -0.496094 -1.179688 -0.75 -1.84375 -0.78125 z m 0 0" fill="#26a269" fill-opacity="0.639216"/>
    <path d="m 81.429688 71.859375 c -1.722657 0 -3.160157 1.441406 -3.160157 3.167969 v 4.742187 c 0 1.726563 1.4375 3.164063 3.160157 3.164063 h 4.75 c 1.722656 0 3.164062 -1.4375 3.164062 -3.164063 v -4.742187 c 0 -1.726563 -1.441406 -3.167969 -3.164062 -3.167969 z m 12.660156 0 c -1.726563 0 -3.164063 1.441406 -3.164063 3.167969 v 4.742187 c 0 1.726563 1.4375 3.164063 3.164063 3.164063 h 4.746094 c 1.722656 0 3.164062 -1.4375 3.164062 -3.164063 v -4.742187 c 0 -1.726563 -1.441406 -3.167969 -3.164062 -3.167969 z m -12.660156 3.167969 h 4.75 v 4.742187 h -4.75 z m 12.660156 0 h 4.746094 v 4.742187 h -4.746094 z m -12.660156 9.492187 c -1.722657 0 -3.160157 1.4375 -3.160157 3.164063 v 4.746094 c 0 1.722656 1.4375 3.164062 3.160157 3.164062 h 4.75 c 1.722656 0 3.164062 -1.441406 3.164062 -3.164062 v -4.746094 c 0 -1.726563 -1.441406 -3.164063 -3.164062 -3.164063 z m 12.660156 0 c -1.726563 0 -3.164063 1.4375 -3.164063 3.164063 v 4.746094 c 0 1.722656 1.4375 3.164062 3.164063 3.164062 h 4.746094 c 1.722656 0 3.164062 -1.441406 3.164062 -3.164062 v -4.746094 c 0 -1.726563 -1.441406 -3.164063 -3.164062 -3.164063 z m -12.660156 3.164063 h 4.75 v 4.746094 h -4.75 z m 12.660156 0 h 4.746094 v 4.746094 h -4.746094 z m 0 0" fill="#222222" fill-opacity="0.513726"/>
    <g mask="url(#j)">
        <g clip-path="url(#n)">
            <g mask="url(#k)">
                <g clip-path="url(#m)">
                    <path d="m 128 80.640625 v 47.359375 h -128 v -47.359375 z m 0 0" fill="url(#l)"/>
                    <path d="m 13.308594 80.640625 l 47.355468 47.359375 h 21.214844 l -47.359375 -47.359375 z m 42.421875 0 l 47.363281 47.359375 h 21.214844 l -47.363282 -47.359375 z m 42.429687 0 l 29.839844 29.839844 v -21.210938 l -8.628906 -8.628906 z m -98.160156 7.90625 v 21.214844 l 18.238281 18.238281 h 21.214844 z m 0 0"/>
                </g>
            </g>
        </g>
    </g>
</svg>
