<?xml version="1.0" encoding="UTF-8"?>
<svg height="128px" viewBox="0 0 128 128" width="128px" xmlns="http://www.w3.org/2000/svg" xmlns:xlink="http://www.w3.org/1999/xlink">
    <linearGradient id="a" gradientTransform="matrix(0.0663002 0 0 0.211772 -5.873931 167.548035)" gradientUnits="userSpaceOnUse" x1="88.595886" x2="536.595886" y1="-449.394012" y2="-449.394012">
        <stop offset="0" stop-color="#8d8d8d"/>
        <stop offset="0.0768555" stop-color="#777674"/>
        <stop offset="0.923077" stop-color="#777674"/>
        <stop offset="1" stop-color="#8d8d8d"/>
    </linearGradient>
    <linearGradient id="b" gradientTransform="matrix(0.0697504 0 0 0.211772 90.572205 167.548035)" gradientUnits="userSpaceOnUse" x1="88.595886" x2="536.595886" y1="-449.394012" y2="-449.394012">
        <stop offset="0" stop-color="#7a7a7a"/>
        <stop offset="0.0768555" stop-color="#565554"/>
        <stop offset="0.923077" stop-color="#565554"/>
        <stop offset="1" stop-color="#7a7a7a"/>
    </linearGradient>
    <linearGradient id="c" gradientUnits="userSpaceOnUse">
        <stop offset="0" stop-color="#2ec27e"/>
        <stop offset="0.0384615" stop-color="#57e389"/>
        <stop offset="0.0768555" stop-color="#26a269"/>
        <stop offset="0.923077" stop-color="#26a269"/>
        <stop offset="0.961538" stop-color="#57e389"/>
        <stop offset="1" stop-color="#2ec27e"/>
    </linearGradient>
    <linearGradient id="d" gradientTransform="matrix(0.141179 0 0 0.211772 19.095173 167.548096)" x1="88.595886" x2="536.595886" xlink:href="#c" y1="-449.394012" y2="-449.394012"/>
    <linearGradient id="e" gradientTransform="matrix(0.141179 0 0 0.211772 52.360847 222.93291)" gradientUnits="userSpaceOnUse" x1="88.595886" x2="536.595886" y1="-449.394012" y2="-449.394012">
        <stop offset="0" stop-color="#7a7a7a"/>
        <stop offset="0.0768555" stop-color="#646361"/>
        <stop offset="0.923077" stop-color="#646361"/>
        <stop offset="1" stop-color="#7a7a7a"/>
    </linearGradient>
    <linearGradient id="f" gradientTransform="matrix(0.141179 0 0 0.211772 -12.787906 222.932953)" x1="88.595886" x2="536.595886" xlink:href="#c" y1="-449.394012" y2="-449.394012"/>
    <path d="m 2.285156 8 h 25.132813 c 1.261719 0 2.285156 2.304688 2.285156 5.148438 v 54.082031 c 0 2.84375 -1.023437 5.148437 -2.285156 5.148437 h -25.132813 c -1.261718 0 -2.285156 -2.304687 -2.285156 -5.148437 v -54.082031 c 0 -2.84375 1.023438 -5.148438 2.285156 -5.148438 z m 0 0" fill="url(#a)"/>
    <path d="m 2.285156 5.582031 h 25.132813 c 1.261719 0 2.285156 1.886719 2.285156 4.214844 v 44.25 c 0 2.328125 -1.023437 4.214844 -2.285156 4.214844 h -25.132813 c -1.261718 0 -2.285156 -1.886719 -2.285156 -4.214844 v -44.25 c 0 -2.328125 1.023438 -4.214844 2.285156 -4.214844 z m 0 0" fill="#b2b2b2"/>
    <path d="m 99.15625 8 h 26.441406 c 1.324219 0 2.402344 2.304688 2.402344 5.148438 v 54.082031 c 0 2.84375 -1.078125 5.148437 -2.402344 5.148437 h -26.441406 c -1.328125 0 -2.40625 -2.304687 -2.40625 -5.148437 v -54.082031 c 0 -2.84375 1.078125 -5.148438 2.40625 -5.148438 z m 0 0" fill="url(#b)"/>
    <path d="m 99.15625 5.582031 h 26.441406 c 1.324219 0 2.402344 1.886719 2.402344 4.214844 v 44.25 c 0 2.328125 -1.078125 4.214844 -2.402344 4.214844 h -26.441406 c -1.328125 0 -2.40625 -1.886719 -2.40625 -4.214844 v -44.25 c 0 -2.328125 1.078125 -4.214844 2.40625 -4.214844 z m 0 0" fill="#9e9e9e"/>
    <path d="m 36.46875 8 h 53.515625 c 2.6875 0 4.867187 2.304688 4.867187 5.152344 v 54.078125 c 0 2.84375 -2.179687 5.148437 -4.867187 5.148437 h -53.515625 c -2.6875 0 -4.867188 -2.304687 -4.867188 -5.148437 v -54.078125 c 0 -2.847656 2.179688 -5.152344 4.867188 -5.152344 z m 0 0" fill="url(#d)"/>
    <path d="m 69.734375 63.386719 h 53.515625 c 2.6875 0 4.867188 2.304687 4.867188 5.148437 v 54.078125 c 0 2.84375 -2.179688 5.148438 -4.867188 5.148438 h -53.515625 c -2.6875 0 -4.867187 -2.304688 -4.867187 -5.148438 v -54.078125 c 0 -2.84375 2.179687 -5.148437 4.867187 -5.148437 z m 0 0" fill="url(#e)"/>
    <path d="m 69.734375 60.964844 h 53.515625 c 2.6875 0 4.867188 1.886718 4.867188 4.214844 v 44.253906 c 0 2.324218 -2.179688 4.210937 -4.867188 4.210937 h -53.515625 c -2.6875 0 -4.867187 -1.886719 -4.867187 -4.210937 v -44.253906 c 0 -2.328126 2.179687 -4.214844 4.867187 -4.214844 z m 0 0" fill="#8d8d8d"/>
    <path d="m 86.863281 70.230469 c -3.957031 0 -7.21875 3.242187 -7.21875 7.175781 v 23.925781 c 0 3.933594 3.261719 7.179688 7.21875 7.179688 h 19.257813 c 3.957031 0 7.21875 -3.246094 7.21875 -7.179688 v -23.925781 c 0 -3.933594 -3.261719 -7.175781 -7.21875 -7.175781 z m 0 4.785156 h 19.257813 c 1.371094 0 2.40625 1.027344 2.40625 2.390625 v 9.570312 h -24.070313 v -9.570312 c 0 -1.363281 1.035157 -2.390625 2.40625 -2.390625 z m 5.933594 3.417969 c -0.046875 0 -0.09375 0.007812 -0.140625 0.023437 c -0.046875 0 -0.101562 0 -0.148438 0 c -0.519531 0.167969 -0.855468 0.652344 -0.828124 1.195313 v 0.148437 c 0 1.308594 1.089843 2.390625 2.40625 2.390625 h 4.8125 c 1.316406 0 2.410156 -1.082031 2.410156 -2.390625 v -0.148437 c 0.027344 -1.617188 -2.4375 -1.617188 -2.410156 0 v 0.148437 h -4.8125 v -0.148437 c 0.007812 -0.710938 -0.59375 -1.261719 -1.289063 -1.214844 z m -8.339844 10.9375 h 24.070313 v 9.570312 c 0 1.363282 -1.035156 2.390625 -2.40625 2.390625 h -19.257813 c -1.371093 0 -2.40625 -1.027343 -2.40625 -2.390625 z m 8.339844 3.417968 c -0.046875 0 -0.09375 0.007813 -0.140625 0.023438 c -0.046875 0 -0.101562 0 -0.148438 0 c -0.519531 0.167969 -0.855468 0.652344 -0.828124 1.195312 v 0.148438 c 0 1.308594 1.089843 2.390625 2.40625 2.390625 h 4.8125 c 1.316406 0 2.410156 -1.082031 2.410156 -2.390625 v -0.148438 c 0.027344 -1.617187 -2.4375 -1.617187 -2.410156 0 v 0.148438 h -4.8125 v -0.148438 c 0.007812 -0.710937 -0.59375 -1.261718 -1.289063 -1.214843 z m 0 0" fill="#29282a" fill-opacity="0.521569"/>
    <path d="m 4.585938 63.386719 h 53.515624 c 2.6875 0 4.867188 2.304687 4.867188 5.148437 v 54.078125 c 0 2.84375 -2.179688 5.152344 -4.867188 5.152344 h -53.515624 c -2.6875 0 -4.867188 -2.308594 -4.867188 -5.152344 v -54.078125 c 0 -2.84375 2.179688 -5.148437 4.867188 -5.148437 z m 0 0" fill="url(#f)"/>
    <path d="m 4.585938 60.964844 h 53.515624 c 2.6875 0 4.867188 1.886718 4.867188 4.214844 v 44.253906 c 0 2.324218 -2.179688 4.210937 -4.867188 4.210937 h -53.515624 c -2.6875 0 -4.867188 -1.886719 -4.867188 -4.210937 v -44.253906 c 0 -2.328126 2.179688 -4.214844 4.867188 -4.214844 z m 0 0" fill="#8ff0a4"/>
    <path d="m 20.511719 80.996094 v 4.785156 h 4.621093 c -0.132812 0 0.203126 0.378906 0.203126 0.195312 v 2.210938 h -2.417969 c -4.128907 0 -7.292969 2.691406 -7.351563 5.945312 c -0.027344 1.625 0.738282 3.257813 2.074219 4.355469 c 1.335937 1.101563 3.164063 1.675781 5.277344 1.675781 h 7.230469 v -14.1875 c 0 -2.800781 -2.132813 -4.980468 -5.015626 -4.980468 z m 2.40625 11.976562 h 2.417969 v 2.40625 h -2.417969 c -1.25 0 -1.910157 -0.328125 -2.210938 -0.582031 c -0.304687 -0.246094 -0.328125 -0.410156 -0.328125 -0.582031 c 0.007813 -0.34375 0.207032 -1.246094 2.539063 -1.246094 z m 9.621093 -14.398437 v 21.589843 h 7.230469 c 2.257813 0 4.257813 -0.890624 5.53125 -2.296874 c 1.277344 -1.402344 1.84375 -3.195313 1.820313 -4.941407 c -0.011719 -1.808593 -0.6875 -3.546875 -1.902344 -4.890625 c -1.269531 -1.378906 -3.234375 -2.28125 -5.449219 -2.28125 h -2.417969 v -7.179687 z m 4.8125 11.964843 h 2.417969 c 1.015625 0 1.503907 0.300782 1.894531 0.722657 c 0.386719 0.425781 0.632813 1.070312 0.644532 1.726562 c 0.007812 0.660157 -0.214844 1.269531 -0.578125 1.671875 c -0.367188 0.398438 -0.855469 0.71875 -1.960938 0.71875 h -2.417969 z m 0 0" fill="#26a269" fill-opacity="0.639216"/>
    <path d="m 36.46875 5.582031 h 53.515625 c 2.6875 0 4.867187 1.886719 4.867187 4.214844 v 44.25 c 0 2.328125 -2.179687 4.214844 -4.867187 4.214844 h -53.515625 c -2.6875 0 -4.867188 -1.886719 -4.867188 -4.214844 v -44.25 c 0 -2.328125 2.179688 -4.214844 4.867188 -4.214844 z m 0 0" fill="#8ff0a4"/>
    <path d="m 54.21875 15.554688 c -0.488281 -0.019532 -0.976562 0.058593 -1.410156 0.234374 c -1.164063 0.476563 -2.105469 1.730469 -2.105469 3.132813 v 26.316406 c 0 1.402344 0.960937 2.644531 2.125 3.113281 c 1.15625 0.457032 2.71875 0.207032 3.6875 -0.8125 l 4.152344 -4.367187 l 3.648437 7.253906 c 0.894532 1.777344 3.066406 2.496094 4.84375 1.617188 c 1.785156 -0.886719 2.511719 -3.046875 1.625 -4.8125 l -3.410156 -6.777344 h 4.992188 c 1.410156 0 2.667968 -0.933594 3.140624 -2.09375 c 0.476563 -1.148437 0.261719 -2.691406 -0.734374 -3.679687 l -18.257813 -18.152344 c -0.621094 -0.617188 -1.46875 -0.933594 -2.296875 -0.972656 z m 0 0" fill="#26a269" fill-opacity="0.639216"/>
</svg>
