<?xml version="1.0" encoding="UTF-8" standalone="no"?>
<svg
   height="64"
   viewBox="0 0 64 64"
   width="64"
   version="1.1"
   id="svg71"
   sodipodi:docname="favicon.svg"
   inkscape:version="1.4 (e7c3feb100, 2024-10-09)"
   xmlns:inkscape="http://www.inkscape.org/namespaces/inkscape"
   xmlns:sodipodi="http://sodipodi.sourceforge.net/DTD/sodipodi-0.dtd"
   xmlns:xlink="http://www.w3.org/1999/xlink"
   xmlns="http://www.w3.org/2000/svg"
   xmlns:svg="http://www.w3.org/2000/svg">
  <defs
     id="defs71" />
  <sodipodi:namedview
     id="namedview71"
     pagecolor="#ffffff"
     bordercolor="#000000"
     borderopacity="0.25"
     inkscape:showpageshadow="2"
     inkscape:pageopacity="0.0"
     inkscape:pagecheckerboard="0"
     inkscape:deskcolor="#d1d1d1"
     inkscape:zoom="6.859375"
     inkscape:cx="64"
     inkscape:cy="37.029613"
     inkscape:window-width="1920"
     inkscape:window-height="1131"
     inkscape:window-x="0"
     inkscape:window-y="0"
     inkscape:window-maximized="1"
     inkscape:current-layer="svg71" />
  <filter
     id="a"
     height="1"
     width="1"
     x="0"
     y="0">
    <feColorMatrix
       color-interpolation-filters="sRGB"
       values="0 0 0 0 1 0 0 0 0 1 0 0 0 0 1 0 0 0 1 0"
       id="feColorMatrix1" />
  </filter>
  <linearGradient
     id="b"
     gradientUnits="userSpaceOnUse">
    <stop
       offset="0"
       stop-color="#2ec27e"
       id="stop1" />
    <stop
       offset="0.0384615"
       stop-color="#57e389"
       id="stop2" />
    <stop
       offset="0.0768555"
       stop-color="#33d17a"
       id="stop3" />
    <stop
       offset="0.923077"
       stop-color="#33d17a"
       id="stop4" />
    <stop
       offset="0.961538"
       stop-color="#57e389"
       id="stop5" />
    <stop
       offset="1"
       stop-color="#2ec27e"
       id="stop6" />
  </linearGradient>
  <linearGradient
     id="c"
     gradientTransform="matrix(0.0586556,0,0,0.0885114,61.479446,120.27447)"
     x1="88.595886"
     x2="536.59589"
     xlink:href="#b"
     y1="-449.39401"
     y2="-449.39401" />
  <mask
     id="d">
    <g
       filter="url(#a)"
       id="g6">
      <rect
         fill-opacity="0.4"
         height="153.60001"
         width="153.60001"
         x="-12.8"
         y="-12.8"
         id="rect6" />
    </g>
  </mask>
  <linearGradient
     id="e"
     gradientTransform="matrix(0.0586556,0,0,0.0885114,29.946217,153.77624)"
     x1="88.595886"
     x2="536.59589"
     xlink:href="#b"
     y1="-449.39401"
     y2="-449.39401" />
  <mask
     id="f">
    <g
       filter="url(#a)"
       id="g7">
      <rect
         fill-opacity="0.4"
         height="153.60001"
         width="153.60001"
         x="-12.8"
         y="-12.8"
         id="rect7" />
    </g>
  </mask>
  <linearGradient
     id="g"
     gradientUnits="userSpaceOnUse">
    <stop
       offset="0"
       stop-color="#9a9996"
       id="stop7" />
    <stop
       offset="0.0384615"
       stop-color="#deddda"
       id="stop8" />
    <stop
       offset="0.0768555"
       stop-color="#abaaa6"
       id="stop9" />
    <stop
       offset="0.923077"
       stop-color="#abaaa6"
       id="stop10" />
    <stop
       offset="0.961538"
       stop-color="#deddda"
       id="stop11" />
    <stop
       offset="1"
       stop-color="#9a9996"
       id="stop12" />
  </linearGradient>
  <linearGradient
     id="h"
     gradientTransform="matrix(0.0586556,0,0,0.0885114,-1.587017,86.772705)"
     x1="88.595886"
     x2="536.59589"
     xlink:href="#g"
     y1="-449.39401"
     y2="-449.39401" />
  <linearGradient
     id="i"
     gradientTransform="matrix(0.0586556,0,0,0.0885114,29.946217,86.772705)"
     gradientUnits="userSpaceOnUse"
     x1="88.595886"
     x2="536.59589"
     y1="-449.39401"
     y2="-449.39401">
    <stop
       offset="0"
       stop-color="#9a9996"
       id="stop13" />
    <stop
       offset="0.0384615"
       stop-color="#deddda"
       id="stop14" />
    <stop
       offset="0.0768555"
       stop-color="#a8a6a3"
       id="stop15" />
    <stop
       offset="0.923077"
       stop-color="#a8a7a3"
       id="stop16" />
    <stop
       offset="0.961538"
       stop-color="#deddda"
       id="stop17" />
    <stop
       offset="1"
       stop-color="#9a9996"
       id="stop18" />
  </linearGradient>
  <linearGradient
     id="j"
     gradientTransform="matrix(0.0586556,0,0,0.0885114,61.479446,86.772705)"
     gradientUnits="userSpaceOnUse"
     x1="88.595886"
     x2="536.59589"
     y1="-449.39401"
     y2="-449.39401">
    <stop
       offset="0"
       stop-color="#9a9996"
       id="stop19" />
    <stop
       offset="0.0384615"
       stop-color="#deddda"
       id="stop20" />
    <stop
       offset="0.0768555"
       stop-color="#9e9d99"
       id="stop21" />
    <stop
       offset="0.923077"
       stop-color="#9e9e99"
       id="stop22" />
    <stop
       offset="0.961538"
       stop-color="#deddda"
       id="stop23" />
    <stop
       offset="1"
       stop-color="#9a9996"
       id="stop24" />
  </linearGradient>
  <linearGradient
     id="k"
     gradientUnits="userSpaceOnUse">
    <stop
       offset="0"
       stop-color="#9a9996"
       id="stop25" />
    <stop
       offset="0.0384615"
       stop-color="#deddda"
       id="stop26" />
    <stop
       offset="0.0768555"
       stop-color="#a4a29e"
       id="stop27" />
    <stop
       offset="0.923077"
       stop-color="#a4a29e"
       id="stop28" />
    <stop
       offset="0.961538"
       stop-color="#deddda"
       id="stop29" />
    <stop
       offset="1"
       stop-color="#9a9996"
       id="stop30" />
  </linearGradient>
  <linearGradient
     id="l"
     gradientTransform="matrix(0.0586556,0,0,0.0885114,93.01268,86.772705)"
     x1="88.595886"
     x2="536.59589"
     xlink:href="#k"
     y1="-449.39401"
     y2="-449.39401" />
  <linearGradient
     id="m"
     gradientTransform="matrix(0.0586556,0,0,0.0885114,-1.587017,120.27447)"
     gradientUnits="userSpaceOnUse"
     x1="88.595886"
     x2="536.59589"
     y1="-449.39401"
     y2="-449.39401">
    <stop
       offset="0"
       stop-color="#9a9996"
       id="stop31" />
    <stop
       offset="0.0384615"
       stop-color="#deddda"
       id="stop32" />
    <stop
       offset="0.0768555"
       stop-color="#b2b1ae"
       id="stop33" />
    <stop
       offset="0.923077"
       stop-color="#b2b1ae"
       id="stop34" />
    <stop
       offset="0.961538"
       stop-color="#deddda"
       id="stop35" />
    <stop
       offset="1"
       stop-color="#9a9996"
       id="stop36" />
  </linearGradient>
  <linearGradient
     id="n"
     gradientTransform="matrix(0.0586556,0,0,0.0885114,29.946217,120.27447)"
     x1="88.595886"
     x2="536.59589"
     xlink:href="#g"
     y1="-449.39401"
     y2="-449.39401" />
  <linearGradient
     id="o"
     gradientTransform="matrix(0.0586556,0,0,0.0885114,93.01268,120.27447)"
     x1="88.595886"
     x2="536.59589"
     xlink:href="#g"
     y1="-449.39401"
     y2="-449.39401" />
  <linearGradient
     id="p"
     gradientTransform="matrix(0.0586556,0,0,0.0885114,93.01268,153.77624)"
     gradientUnits="userSpaceOnUse"
     x1="88.595886"
     x2="536.59589"
     y1="-449.39401"
     y2="-449.39401">
    <stop
       offset="0"
       stop-color="#9a9996"
       id="stop37" />
    <stop
       offset="0.0384615"
       stop-color="#deddda"
       id="stop38" />
    <stop
       offset="0.0768555"
       stop-color="#a6a5a0"
       id="stop39" />
    <stop
       offset="0.923077"
       stop-color="#a6a5a0"
       id="stop40" />
    <stop
       offset="0.961538"
       stop-color="#deddda"
       id="stop41" />
    <stop
       offset="1"
       stop-color="#9a9996"
       id="stop42" />
  </linearGradient>
  <linearGradient
     id="q"
     gradientTransform="matrix(0.0586556,0,0,0.0885114,61.479446,153.77624)"
     gradientUnits="userSpaceOnUse"
     x1="88.595886"
     x2="536.59589"
     y1="-449.39401"
     y2="-449.39401">
    <stop
       offset="0"
       stop-color="#9a9996"
       id="stop43" />
    <stop
       offset="0.0384615"
       stop-color="#deddda"
       id="stop44" />
    <stop
       offset="0.0768555"
       stop-color="#a1a09b"
       id="stop45" />
    <stop
       offset="0.923077"
       stop-color="#a1a09b"
       id="stop46" />
    <stop
       offset="0.961538"
       stop-color="#deddda"
       id="stop47" />
    <stop
       offset="1"
       stop-color="#9a9996"
       id="stop48" />
  </linearGradient>
  <linearGradient
     id="r"
     gradientTransform="matrix(0.0586556,0,0,0.0885114,-1.587017,153.77624)"
     x1="88.595886"
     x2="536.59589"
     xlink:href="#k"
     y1="-449.39401"
     y2="-449.39401" />
  <g
     id="g72"
     transform="translate(0.35909027,-1.2890625)">
    <g
       id="g71"
       transform="translate(-0.87471527,-50)">
      <path
         d="m 37.164062,87.09375 h 22.234376 c 1.117187,0 2.023437,0.960938 2.023437,2.152344 v 22.601566 c 0,1.1875 -0.90625,2.15234 -2.023437,2.15234 H 37.164062 c -1.117187,0 -2.019531,-0.96484 -2.019531,-2.15234 V 89.246094 c 0,-1.191406 0.902344,-2.152344 2.019531,-2.152344 z m 0,0"
         fill="url(#e)"
         id="path50"
         style="fill:url(#e)" />
      <path
         d="m 37.164062,86.082031 h 22.234376 c 1.117187,0 2.023437,0.789063 2.023437,1.761719 v 18.49219 c 0,0.97656 -0.90625,1.76172 -2.023437,1.76172 H 37.164062 c -1.117187,0 -2.019531,-0.78516 -2.019531,-1.76172 V 87.84375 c 0,-0.972656 0.902344,-1.761719 2.019531,-1.761719 z m 0,0"
         fill="#8ff0a4"
         id="path51" />
      <path
         d="m 5.632812,53.589844 h 22.234376 c 1.113281,0 2.019531,0.964844 2.019531,2.152344 V 78.34375 c 0,1.191406 -0.90625,2.152344 -2.019531,2.152344 H 5.632812 c -1.117187,0 -2.023437,-0.960938 -2.023437,-2.152344 V 55.742188 c 0,-1.1875 0.90625,-2.152344 2.023437,-2.152344 z m 0,0"
         fill="url(#m)"
         id="path60"
         style="fill:url(#m)" />
      <path
         d="m 5.632812,52.578125 h 22.234376 c 1.113281,0 2.019531,0.789063 2.019531,1.761719 v 18.496094 c 0,0.972656 -0.90625,1.761718 -2.019531,1.761718 H 5.632812 c -1.117187,0 -2.023437,-0.789062 -2.023437,-1.761718 V 54.339844 c 0,-0.972656 0.90625,-1.761719 2.023437,-1.761719 z m 0,0"
         fill="#e4e4e4"
         id="path61" />
      <path
         d="m 37.164062,53.589844 h 22.234376 c 1.117187,0 2.023437,0.964844 2.023437,2.152344 V 78.34375 c 0,1.191406 -0.90625,2.152344 -2.023437,2.152344 H 37.164062 c -1.117187,0 -2.019531,-0.960938 -2.019531,-2.152344 V 55.742188 c 0,-1.1875 0.902344,-2.152344 2.019531,-2.152344 z m 0,0"
         fill="url(#n)"
         id="path62"
         style="fill:url(#n)" />
      <path
         d="m 37.164062,52.578125 h 22.234376 c 1.117187,0 2.023437,0.789063 2.023437,1.761719 v 18.496094 c 0,0.972656 -0.90625,1.761718 -2.023437,1.761718 H 37.164062 c -1.117187,0 -2.019531,-0.789062 -2.019531,-1.761718 V 54.339844 c 0,-0.972656 0.902344,-1.761719 2.019531,-1.761719 z m 0,0"
         fill="#dcdcdc"
         id="path63" />
      <path
         d="m 5.632812,87.09375 h 22.234376 c 1.113281,0 2.019531,0.960938 2.019531,2.152344 v 22.601566 c 0,1.1875 -0.90625,2.15234 -2.019531,2.15234 H 5.632812 c -1.117187,0 -2.023437,-0.96484 -2.023437,-2.15234 V 89.246094 c 0,-1.191406 0.90625,-2.152344 2.023437,-2.152344 z m 0,0"
         fill="url(#r)"
         id="path70"
         style="fill:url(#r)" />
      <path
         d="m 5.632812,86.082031 h 22.234376 c 1.113281,0 2.019531,0.789063 2.019531,1.761719 v 18.49219 c 0,0.97656 -0.90625,1.76172 -2.019531,1.76172 H 5.632812 c -1.117187,0 -2.023437,-0.78516 -2.023437,-1.76172 V 87.84375 c 0,-0.972656 0.90625,-1.761719 2.023437,-1.761719 z m 0,0"
         fill="#d3d3d3"
         id="path71" />
    </g>
  </g>
</svg>
