<?xml version="1.0" encoding="UTF-8" standalone="no"?>
<svg
   viewBox="0 0 24 24"
   width="24"
   height="24"
   version="1.1"
   id="svg1"
   sodipodi:docname="heart.svg"
   inkscape:version="1.4 (e7c3feb100, 2024-10-09)"
   xmlns:inkscape="http://www.inkscape.org/namespaces/inkscape"
   xmlns:sodipodi="http://sodipodi.sourceforge.net/DTD/sodipodi-0.dtd"
   xmlns="http://www.w3.org/2000/svg"
   xmlns:svg="http://www.w3.org/2000/svg">
  <defs
     id="defs1" />
  <sodipodi:namedview
     id="namedview1"
     pagecolor="#ffffff"
     bordercolor="#000000"
     borderopacity="0.25"
     inkscape:showpageshadow="2"
     inkscape:pageopacity="0.0"
     inkscape:pagecheckerboard="0"
     inkscape:deskcolor="#d1d1d1"
     inkscape:zoom="36.583333"
     inkscape:cx="12"
     inkscape:cy="12"
     inkscape:window-width="1920"
     inkscape:window-height="1131"
     inkscape:window-x="0"
     inkscape:window-y="0"
     inkscape:window-maximized="1"
     inkscape:current-layer="svg1" />
  <path
     d="m12 20.703.343.667a.748.748 0 0 1-.686 0l-.003-.002-.007-.003-.025-.013a31.138 31.138 0 0 1-5.233-3.576C3.8 15.573 1 12.332 1 8.514v-.001C1 5.053 3.829 2.5 6.736 2.5 9.03 2.5 10.881 3.726 12 5.605 13.12 3.726 14.97 2.5 17.264 2.5 20.17 2.5 23 5.052 23 8.514c0 3.818-2.801 7.06-5.389 9.262a31.148 31.148 0 0 1-5.233 3.576l-.025.013-.007.003-.002.001ZM6.736 4C4.657 4 2.5 5.88 2.5 8.514c0 3.107 2.324 5.96 4.861 8.12a29.655 29.655 0 0 0 4.566 3.175l.073.041.073-.04c.271-.153.661-.38 1.13-.674.94-.588 2.19-1.441 3.436-2.502 2.537-2.16 4.861-5.013 4.861-8.12C21.5 5.88 19.343 4 17.264 4c-2.106 0-3.801 1.389-4.553 3.643a.751.751 0 0 1-1.422 0C10.537 5.389 8.841 4 6.736 4Z"
     id="path1"
     style="fill:#c96198;fill-opacity:1" />
</svg>
