<?xml version="1.0" encoding="UTF-8"?>
<svg height="128px" viewBox="0 0 128 128" width="128px" xmlns="http://www.w3.org/2000/svg" xmlns:xlink="http://www.w3.org/1999/xlink">
    <linearGradient id="a" gradientUnits="userSpaceOnUse">
        <stop offset="0" stop-color="#2ec27e"/>
        <stop offset="0.0384615" stop-color="#57e389"/>
        <stop offset="0.0768555" stop-color="#26a269"/>
        <stop offset="0.923077" stop-color="#26a269"/>
        <stop offset="0.961538" stop-color="#57e389"/>
        <stop offset="1" stop-color="#2ec27e"/>
    </linearGradient>
    <linearGradient id="b" gradientTransform="matrix(0.141179 0 0 0.211772 18.977982 167.782471)" x1="88.595886" x2="536.595886" xlink:href="#a" y1="-449.394012" y2="-449.394012"/>
    <linearGradient id="c" gradientTransform="matrix(0.141179 0 0 0.211772 52.243649 223.167328)" gradientUnits="userSpaceOnUse" x1="88.595886" x2="536.595886" y1="-449.394012" y2="-449.394012">
        <stop offset="0" stop-color="#999999"/>
        <stop offset="0.0768555" stop-color="#646361"/>
        <stop offset="0.923077" stop-color="#646361"/>
        <stop offset="1" stop-color="#999999"/>
    </linearGradient>
    <linearGradient id="d" gradientTransform="matrix(0.141179 0 0 0.211772 52.243656 167.782562)" gradientUnits="userSpaceOnUse" x1="88.595886" x2="536.595886" y1="-449.394012" y2="-449.394012">
        <stop offset="0.5" stop-color="#787878"/>
        <stop offset="0.58" stop-color="#585855"/>
        <stop offset="0.923077" stop-color="#585855"/>
        <stop offset="1" stop-color="#787878"/>
    </linearGradient>
    <linearGradient id="e" gradientTransform="matrix(0.141179 0 0 0.211772 -45.513489 167.782562)" gradientUnits="userSpaceOnUse" x1="88.595886" x2="536.595886" y1="-449.394012" y2="-449.394012">
        <stop offset="0.497563" stop-color="#b8b8b8"/>
        <stop offset="0.58" stop-color="#8b8987"/>
        <stop offset="0.923077" stop-color="#8b8a89"/>
        <stop offset="1" stop-color="#b8b8b8"/>
    </linearGradient>
    <linearGradient id="f" gradientTransform="matrix(0.141179 0 0 0.211772 -12.905097 223.167328)" x1="88.595886" x2="536.595886" xlink:href="#a" y1="-449.394012" y2="-449.394012"/>
    <path d="m 36.351562 8.234375 h 53.515626 c 2.6875 0 4.867187 2.304687 4.867187 5.152344 v 54.078125 c 0 2.84375 -2.179687 5.148437 -4.867187 5.148437 h -53.515626 c -2.6875 0 -4.867187 -2.304687 -4.867187 -5.148437 v -54.078125 c 0 -2.847657 2.179687 -5.152344 4.867187 -5.152344 z m 0 0" fill="url(#b)"/>
    <path d="m 69.617188 63.621094 h 53.515624 c 2.6875 0 4.867188 2.304687 4.867188 5.148437 v 54.078125 c 0 2.84375 -2.179688 5.152344 -4.867188 5.152344 h -53.515624 c -2.6875 0 -4.867188 -2.308594 -4.867188 -5.152344 v -54.078125 c 0 -2.84375 2.179688 -5.148437 4.867188 -5.148437 z m 0 0" fill="url(#c)"/>
    <path d="m 102.226562 8.234375 h 20.90625 c 2.6875 0 4.867188 2.304687 4.867188 5.148437 v 54.078126 c 0 2.84375 -2.179688 5.152343 -4.867188 5.152343 h -20.90625 c -2.6875 0 -4.867187 -2.308593 -4.867187 -5.152343 v -54.078126 c 0 -2.84375 2.179687 -5.148437 4.867187 -5.148437 z m 0 0" fill="url(#d)"/>
    <path d="m 102.226562 5.8125 h 20.90625 c 2.6875 0 4.867188 1.886719 4.867188 4.214844 v 44.253906 c 0 2.324219 -2.179688 4.210938 -4.867188 4.210938 h -20.90625 c -2.6875 0 -4.867187 -1.886719 -4.867187 -4.210938 v -44.253906 c 0 -2.328125 2.179687 -4.214844 4.867187 -4.214844 z m 0 0" fill="#818181"/>
    <path d="m 4.46875 8.234375 h 19.75 c 2.6875 0 4.867188 2.304687 4.867188 5.148437 v 54.078126 c 0 2.84375 -2.179688 5.152343 -4.867188 5.152343 h -19.75 c -2.6875 0 -4.867188 -2.308593 -4.867188 -5.152343 v -54.078126 c 0 -2.84375 2.179688 -5.148437 4.867188 -5.148437 z m 0 0" fill="url(#e)"/>
    <path d="m 4.46875 5.8125 h 19.75 c 2.6875 0 4.867188 1.886719 4.867188 4.214844 v 44.253906 c 0 2.324219 -2.179688 4.210938 -4.867188 4.210938 h -19.75 c -2.6875 0 -4.867188 -1.886719 -4.867188 -4.210938 v -44.253906 c 0 -2.328125 2.179688 -4.214844 4.867188 -4.214844 z m 0 0" fill="#bebebe"/>
    <path d="m 69.617188 61.199219 h 53.515624 c 2.6875 0 4.867188 1.886719 4.867188 4.214843 v 44.253907 c 0 2.324219 -2.179688 4.210937 -4.867188 4.210937 h -53.515624 c -2.6875 0 -4.867188 -1.886718 -4.867188 -4.210937 v -44.253907 c 0 -2.328124 2.179688 -4.214843 4.867188 -4.214843 z m 0 0" fill="#a7a7a7"/>
    <path d="m 4.46875 63.621094 h 52.878906 c 2.6875 0 4.867188 2.304687 4.867188 5.148437 v 54.078125 c 0 2.84375 -2.179688 5.152344 -4.867188 5.152344 h -52.878906 c -2.6875 0 -4.867188 -2.308594 -4.867188 -5.152344 v -54.078125 c 0 -2.84375 2.179688 -5.148437 4.867188 -5.148437 z m 0 0" fill="url(#f)"/>
    <path d="m 4.46875 61.199219 h 52.878906 c 2.6875 0 4.867188 1.886719 4.867188 4.214843 v 44.253907 c 0 2.324219 -2.179688 4.210937 -4.867188 4.210937 h -52.878906 c -2.6875 0 -4.867188 -1.886718 -4.867188 -4.210937 v -44.253907 c 0 -2.328124 2.179688 -4.214843 4.867188 -4.214843 z m 0 0" fill="#8ff0a4"/>
    <path d="m 20.394531 81.230469 v 4.785156 h 4.621094 c -0.132813 0 0.203125 0.378906 0.203125 0.195313 v 2.210937 h -2.417969 c -4.128906 0 -7.292969 2.691406 -7.351562 5.945313 c -0.027344 1.625 0.738281 3.257812 2.074219 4.355468 c 1.335937 1.101563 3.164062 1.675782 5.277343 1.675782 h 7.230469 v -14.1875 c 0 -2.800782 -2.132812 -4.980469 -5.015625 -4.980469 z m 2.40625 11.976562 h 2.417969 v 2.40625 h -2.417969 c -1.25 0 -1.910156 -0.328125 -2.210937 -0.582031 c -0.304688 -0.246094 -0.328125 -0.410156 -0.328125 -0.582031 c 0.007812 -0.34375 0.207031 -1.246094 2.539062 -1.246094 z m 9.621094 -14.398437 v 21.589844 h 7.230469 c 2.257812 0 4.257812 -0.890626 5.53125 -2.296876 c 1.277344 -1.402343 1.84375 -3.195312 1.820312 -4.941406 c -0.011718 -1.808594 -0.6875 -3.546875 -1.902344 -4.890625 c -1.269531 -1.378906 -3.234374 -2.28125 -5.449218 -2.28125 h -2.417969 v -7.179687 z m 4.8125 11.964844 h 2.417969 c 1.015625 0 1.503906 0.300781 1.894531 0.722656 c 0.386719 0.425781 0.632813 1.070312 0.644531 1.726562 c 0.007813 0.660156 -0.214844 1.269532 -0.578125 1.671875 c -0.367187 0.398438 -0.855469 0.71875 -1.960937 0.71875 h -2.417969 z m 0 0" fill="#26a269" fill-opacity="0.639216"/>
    <path d="m 36.351562 5.8125 h 53.515626 c 2.6875 0 4.867187 1.886719 4.867187 4.214844 v 44.25 c 0 2.328125 -2.179687 4.214844 -4.867187 4.214844 h -53.515626 c -2.6875 0 -4.867187 -1.886719 -4.867187 -4.214844 v -44.25 c 0 -2.328125 2.179687 -4.214844 4.867187 -4.214844 z m 0 0" fill="#8ff0a4"/>
    <path d="m 54.101562 15.789062 c -0.488281 -0.019531 -0.976562 0.058594 -1.410156 0.234376 c -1.164062 0.476562 -2.105468 1.730468 -2.105468 3.132812 v 26.316406 c 0 1.402344 0.960937 2.644532 2.125 3.113282 c 1.15625 0.457031 2.71875 0.207031 3.6875 -0.8125 l 4.152343 -4.367188 l 3.648438 7.253906 c 0.894531 1.777344 3.066406 2.496094 4.84375 1.617188 c 1.785156 -0.886719 2.511719 -3.046875 1.625 -4.8125 l -3.410157 -6.777344 h 4.992188 c 1.410156 0 2.667969 -0.933594 3.140625 -2.09375 c 0.476563 -1.148438 0.261719 -2.691406 -0.734375 -3.679688 l -18.257812 -18.152343 c -0.621094 -0.617188 -1.46875 -0.933594 -2.296876 -0.972657 z m 0 0" fill="#26a269" fill-opacity="0.639216"/>
    <path d="m 85.527344 74.75 c -2.148438 0 -3.941406 1.792969 -3.941406 3.945312 v 5.914063 c 0 2.152344 1.792968 3.945313 3.941406 3.945313 h 5.917968 c 2.148438 0 3.945313 -1.792969 3.945313 -3.945313 v -5.914063 c 0 -2.152343 -1.796875 -3.945312 -3.945313 -3.945312 z m 15.777344 0 c -2.148438 0 -3.941407 1.792969 -3.941407 3.945312 v 5.914063 c 0 2.152344 1.792969 3.945313 3.941407 3.945313 h 5.917968 c 2.148438 0 3.945313 -1.792969 3.945313 -3.945313 v -5.914063 c 0 -2.152343 -1.796875 -3.945312 -3.945313 -3.945312 z m -15.777344 3.945312 h 5.917968 v 5.914063 h -5.917968 z m 15.777344 0 h 5.917968 v 5.914063 h -5.917968 z m -15.777344 11.832032 c -2.148438 0 -3.941406 1.792968 -3.941406 3.945312 v 5.914063 c 0 2.148437 1.792968 3.945312 3.941406 3.945312 h 5.917968 c 2.148438 0 3.945313 -1.796875 3.945313 -3.945312 v -5.914063 c 0 -2.152344 -1.796875 -3.945312 -3.945313 -3.945312 z m 15.777344 0 c -2.148438 0 -3.941407 1.792968 -3.941407 3.945312 v 5.914063 c 0 2.148437 1.792969 3.945312 3.941407 3.945312 h 5.917968 c 2.148438 0 3.945313 -1.796875 3.945313 -3.945312 v -5.914063 c 0 -2.152344 -1.796875 -3.945312 -3.945313 -3.945312 z m -15.777344 3.945312 h 5.917968 v 5.914063 h -5.917968 z m 15.777344 0 h 5.917968 v 5.914063 h -5.917968 z m 0 0" fill="#222222" fill-opacity="0.513726"/>
</svg>
