<?xml version="1.0" encoding="UTF-8"?>
<svg height="128px" viewBox="0 0 128 128" width="128px" xmlns="http://www.w3.org/2000/svg" xmlns:xlink="http://www.w3.org/1999/xlink">
    <linearGradient id="a" gradientTransform="matrix(0.0933677 0 0 0.140892 -8.271988 117.384705)" gradientUnits="userSpaceOnUse" x1="88.595886" x2="536.595886" y1="-449.394012" y2="-449.394012">
        <stop offset="0" stop-color="#828282"/>
        <stop offset="0.0768555" stop-color="#605e5d"/>
        <stop offset="0.923077" stop-color="#605e5d"/>
        <stop offset="1" stop-color="#828282"/>
    </linearGradient>
    <linearGradient id="b" gradientTransform="matrix(0.0933677 0 0 0.140892 -8.271988 154.232208)" gradientUnits="userSpaceOnUse" x1="88.595886" x2="536.595886" y1="-449.394012" y2="-449.394012">
        <stop offset="0" stop-color="#8d8d8d"/>
        <stop offset="0.0768555" stop-color="#777674"/>
        <stop offset="0.923077" stop-color="#777674"/>
        <stop offset="1" stop-color="#8d8d8d"/>
    </linearGradient>
    <linearGradient id="c" gradientTransform="matrix(0.0933677 0 0 0.140892 77.899276 117.384659)" gradientUnits="userSpaceOnUse" x1="88.595886" x2="536.595886" y1="-449.394012" y2="-449.394012">
        <stop offset="0" stop-color="#a1a1a1"/>
        <stop offset="0.0768555" stop-color="#807f7e"/>
        <stop offset="0.923077" stop-color="#807f7e"/>
        <stop offset="1" stop-color="#a1a1a1"/>
    </linearGradient>
    <linearGradient id="d" gradientTransform="matrix(0.0933677 0 0 0.140892 77.899276 154.232195)" gradientUnits="userSpaceOnUse" x1="88.595886" x2="536.595886" y1="-449.394012" y2="-449.394012">
        <stop offset="0" stop-color="#7a7a7a"/>
        <stop offset="0.0768555" stop-color="#565554"/>
        <stop offset="0.923077" stop-color="#565554"/>
        <stop offset="1" stop-color="#7a7a7a"/>
    </linearGradient>
    <linearGradient id="e" gradientTransform="matrix(0.0933677 0 0 0.140892 77.899276 191.079737)" gradientUnits="userSpaceOnUse" x1="88.595886" x2="536.595886" y1="-449.394012" y2="-449.394012">
        <stop offset="0" stop-color="#a7a7a7"/>
        <stop offset="0.0768555" stop-color="#767574"/>
        <stop offset="0.923077" stop-color="#767574"/>
        <stop offset="1" stop-color="#a7a7a7"/>
    </linearGradient>
    <linearGradient id="f" gradientUnits="userSpaceOnUse">
        <stop offset="0" stop-color="#2ec27e"/>
        <stop offset="0.0384615" stop-color="#57e389"/>
        <stop offset="0.0768555" stop-color="#26a269"/>
        <stop offset="0.923077" stop-color="#26a269"/>
        <stop offset="0.961538" stop-color="#57e389"/>
        <stop offset="1" stop-color="#2ec27e"/>
    </linearGradient>
    <linearGradient id="g" gradientTransform="matrix(0.0933677 0 0 0.140892 34.813629 117.384678)" x1="88.595886" x2="536.595886" xlink:href="#f" y1="-449.394012" y2="-449.394012"/>
    <linearGradient id="h" gradientTransform="matrix(0.0933677 0 0 0.140892 34.813641 154.232239)" x1="88.595886" x2="536.595886" xlink:href="#f" y1="-449.394012" y2="-449.394012"/>
    <linearGradient id="i" gradientTransform="matrix(0.0933677 0 0 0.140892 34.813645 191.079737)" gradientUnits="userSpaceOnUse" x1="88.595886" x2="536.595886" y1="-449.394012" y2="-449.394012">
        <stop offset="0" stop-color="#7a7a7a"/>
        <stop offset="0.0768555" stop-color="#646361"/>
        <stop offset="0.923077" stop-color="#646361"/>
        <stop offset="1" stop-color="#7a7a7a"/>
    </linearGradient>
    <linearGradient id="j" gradientTransform="matrix(0.0933677 0 0 0.140892 -8.271994 191.079742)" x1="88.595886" x2="536.595886" xlink:href="#f" y1="-449.394012" y2="-449.394012"/>
    <path d="m 3.21875 11.238281 h 35.390625 c 1.777344 0 3.21875 1.535157 3.21875 3.425781 v 35.976563 c 0 1.894531 -1.441406 3.429687 -3.21875 3.429687 h -35.390625 c -1.777344 0 -3.21875 -1.535156 -3.21875 -3.429687 v -35.976563 c 0 -1.890624 1.441406 -3.425781 3.21875 -3.425781 z m 0 0" fill="url(#a)"/>
    <path d="m 3.21875 9.628906 h 35.390625 c 1.777344 0 3.21875 1.253906 3.21875 2.804688 v 29.4375 c 0 1.550781 -1.441406 2.804687 -3.21875 2.804687 h -35.390625 c -1.777344 0 -3.21875 -1.253906 -3.21875 -2.804687 v -29.4375 c 0 -1.550782 1.441406 -2.804688 3.21875 -2.804688 z m 0 0" fill="#909090"/>
    <path d="m 20.914062 15.789062 c -7.011718 0 -12.734374 5.722657 -12.734374 12.734376 c 0 7.015624 5.722656 12.734374 12.734374 12.734374 c 7.015626 0 12.734376 -5.71875 12.734376 -12.734374 c 0 -7.011719 -5.71875 -12.734376 -12.734376 -12.734376 z m 0 3.183594 c 5.292969 0 9.550782 4.261719 9.550782 9.550782 c 0 5.292968 -4.257813 9.550781 -9.550782 9.550781 c -5.292968 0 -9.550781 -4.257813 -9.550781 -9.550781 c 0 -5.289063 4.257813 -9.550782 9.550781 -9.550782 z m 0 0" fill="#29282a" fill-opacity="0.521569"/>
    <path d="m 16.027344 23.675781 c -0.207032 0.003907 -0.410156 0.09375 -0.558594 0.242188 c -0.304688 0.3125 -0.300781 0.8125 0.011719 1.125 l 4.957031 4.84375 c 0.164062 0.15625 0.390625 0.230469 0.613281 0.207031 h 4.640625 c 0.441406 0 0.792969 -0.355469 0.792969 -0.796875 c 0 -0.4375 -0.351563 -0.796875 -0.792969 -0.796875 h -4.398437 l -4.699219 -4.59375 c -0.148438 -0.148438 -0.355469 -0.230469 -0.566406 -0.230469 z m 0 0" fill="#29282a" fill-opacity="0.521569"/>
    <path d="m 3.21875 48.085938 h 35.390625 c 1.777344 0 3.21875 1.53125 3.21875 3.425781 v 35.976562 c 0 1.894531 -1.441406 3.429688 -3.21875 3.429688 h -35.390625 c -1.777344 0 -3.21875 -1.535157 -3.21875 -3.429688 v -35.976562 c 0 -1.894531 1.441406 -3.425781 3.21875 -3.425781 z m 0 0" fill="url(#b)"/>
    <path d="m 3.21875 46.476562 h 35.390625 c 1.777344 0 3.21875 1.253907 3.21875 2.804688 v 29.4375 c 0 1.550781 -1.441406 2.804688 -3.21875 2.804688 h -35.390625 c -1.777344 0 -3.21875 -1.253907 -3.21875 -2.804688 v -29.4375 c 0 -1.550781 1.441406 -2.804688 3.21875 -2.804688 z m 0 0" fill="#b2b2b2"/>
    <g fill="#29282a" fill-opacity="0.521569">
        <path d="m 11.660156 54.230469 c -1.917968 0 -3.480468 1.617187 -3.480468 3.53125 v 15.222656 c 0 1.914063 1.5625 3.53125 3.480468 3.53125 h 18.507813 c 1.921875 0 3.480469 -1.617187 3.480469 -3.53125 v -15.222656 c 0 -1.914063 -1.558594 -3.53125 -3.480469 -3.53125 z m 0 3.183593 h 18.507813 c 0.191406 0 0.296875 0.128907 0.296875 0.347657 v 15.222656 c 0 0.214844 -0.105469 0.347656 -0.296875 0.347656 h -18.507813 c -0.191406 0 -0.296875 -0.132812 -0.296875 -0.347656 v -15.222656 c 0 -0.21875 0.105469 -0.347657 0.296875 -0.347657 z m 0 0"/>
        <path d="m 15.042969 60.449219 c -0.339844 0.085937 -0.609375 0.351562 -0.695313 0.703125 c -0.082031 0.339844 0.03125 0.699218 0.300782 0.9375 l 2.484374 2.488281 l -2.484374 2.484375 c -0.386719 0.386719 -0.386719 1.007812 0 1.394531 c 0.382812 0.386719 1.003906 0.386719 1.390624 0 l 3.183594 -3.183593 c 0.191406 -0.179688 0.300782 -0.4375 0.300782 -0.695313 c 0 -0.261719 -0.109376 -0.515625 -0.300782 -0.699219 l -3.183594 -3.183594 c -0.253906 -0.265624 -0.640624 -0.367187 -0.996093 -0.246093 z m 0 0"/>
        <path d="m 20.914062 66.964844 h 4.777344 v 1.589844 h -4.777344 z m 0 0"/>
    </g>
    <path d="m 89.390625 11.238281 h 35.390625 c 1.777344 0 3.21875 1.535157 3.21875 3.425781 v 35.976563 c 0 1.894531 -1.441406 3.429687 -3.21875 3.429687 h -35.390625 c -1.777344 0 -3.21875 -1.535156 -3.21875 -3.429687 v -35.976563 c 0 -1.890624 1.441406 -3.425781 3.21875 -3.425781 z m 0 0" fill="url(#c)"/>
    <path d="m 89.390625 9.628906 h 35.390625 c 1.777344 0 3.21875 1.253906 3.21875 2.804688 v 29.4375 c 0 1.550781 -1.441406 2.804687 -3.21875 2.804687 h -35.390625 c -1.777344 0 -3.21875 -1.253906 -3.21875 -2.804687 v -29.4375 c 0 -1.550782 1.441406 -2.804688 3.21875 -2.804688 z m 0 0" fill="#c7c7c7"/>
    <path d="m 104.660156 31.707031 l 11.140625 -11.140625 l 3.183594 3.183594 l -11.140625 11.140625 h -3.183594 z m 0 0" fill="#29282a" fill-opacity="0.521569" fill-rule="evenodd"/>
    <path d="m 98.441406 15.789062 c -0.90625 0 -1.742187 0.800782 -1.742187 1.695313 v 22.082031 c 0 0.894532 0.835937 1.691406 1.742187 1.691406 h 17.210938 c 0.886718 0 1.707031 -0.769531 1.742187 -1.640624 v -11.09375 l -3.183593 3.183593 v 6.367188 h -14.328126 v -19.101563 h 7.960938 l 3.183594 3.183594 l 2.4375 -2.433594 l -3.484375 -3.382812 c -0.324219 -0.339844 -0.773438 -0.539063 -1.242188 -0.550782 z m 0 0" fill="#29282a" fill-opacity="0.521569"/>
    <path d="m 119.289062 17.398438 c -0.21875 0 -0.429687 0.089843 -0.582031 0.242187 l -1.847656 1.847656 l 3.1875 3.191407 l 1.851563 -1.847657 c 0.15625 -0.15625 0.242187 -0.363281 0.242187 -0.582031 c 0 -0.214844 -0.085937 -0.425781 -0.242187 -0.578125 l -2.03125 -2.03125 c -0.152344 -0.152344 -0.363282 -0.238281 -0.578126 -0.242187 z m 0 0" fill="#29282a" fill-opacity="0.521569" fill-rule="evenodd"/>
    <path d="m 89.390625 48.085938 h 35.390625 c 1.777344 0 3.21875 1.53125 3.21875 3.425781 v 35.976562 c 0 1.894531 -1.441406 3.429688 -3.21875 3.429688 h -35.390625 c -1.777344 0 -3.21875 -1.535157 -3.21875 -3.429688 v -35.976562 c 0 -1.894531 1.441406 -3.425781 3.21875 -3.425781 z m 0 0" fill="url(#d)"/>
    <path d="m 89.390625 46.476562 h 35.390625 c 1.777344 0 3.21875 1.253907 3.21875 2.804688 v 29.4375 c 0 1.550781 -1.441406 2.804688 -3.21875 2.804688 h -35.390625 c -1.777344 0 -3.21875 -1.253907 -3.21875 -2.804688 v -29.4375 c 0 -1.550781 1.441406 -2.804688 3.21875 -2.804688 z m 0 0" fill="#9e9e9e"/>
    <path d="m 94.34375 65.34375 c 0 5.242188 4.25 9.496094 9.484375 9.488281 l 8.835937 0.0625 c 3.953126 0 7.164063 -3.207031 7.164063 -7.164062 c 0 -3.953125 -3.210937 -7.160157 -7.164063 -7.160157 c -0.667968 0 -1.320312 0.09375 -1.953124 0.273438 l 1.914062 0.933594 c -1.449219 -3.582032 -4.921875 -5.921875 -8.785156 -5.925782 c -5.246094 0 -9.496094 4.25 -9.496094 9.492188 z m 15.335938 -2.367188 c 0.304687 0.75 1.128906 1.15625 1.914062 0.933594 c 0.347656 -0.109375 0.707031 -0.15625 1.070312 -0.15625 c 2.210938 0 3.980469 1.765625 3.980469 3.976563 c 0 2.214843 -1.769531 3.980469 -3.96875 3.980469 l -8.84375 -0.054688 c -3.5 0 -6.304687 -2.8125 -6.304687 -6.3125 s 2.804687 -6.308594 6.304687 -6.304688 c 2.574219 0 4.875 1.546876 5.847657 3.9375 z m 0 0" fill="#29282a" fill-opacity="0.521569"/>
    <path d="m 89.390625 84.933594 h 35.390625 c 1.777344 0 3.21875 1.53125 3.21875 3.425781 v 35.976563 c 0 1.894531 -1.441406 3.429687 -3.21875 3.429687 h -35.390625 c -1.777344 0 -3.21875 -1.535156 -3.21875 -3.429687 v -35.976563 c 0 -1.894531 1.441406 -3.425781 3.21875 -3.425781 z m 0 0" fill="url(#e)"/>
    <path d="m 89.390625 83.324219 h 35.390625 c 1.777344 0 3.21875 1.253906 3.21875 2.804687 v 29.4375 c 0 1.550782 -1.441406 2.804688 -3.21875 2.804688 h -35.390625 c -1.777344 0 -3.21875 -1.253906 -3.21875 -2.804688 v -29.4375 c 0 -1.550781 1.441406 -2.804687 3.21875 -2.804687 z m 0 0" fill="#cacaca"/>
    <path d="m 106.542969 89.5 c -4.160157 0.175781 -7.964844 2.371094 -10.203125 5.882812 c -3.035156 4.777344 -2.554688 10.980469 1.175781 15.242188 c 3.730469 4.246094 9.824219 5.527344 14.953125 3.132812 c 0.796875 -0.367187 1.144531 -1.320312 0.769531 -2.113281 c -0.371093 -0.796875 -1.316406 -1.140625 -2.113281 -0.773437 c -3.847656 1.804687 -8.425781 0.847656 -11.222656 -2.351563 c -2.804688 -3.1875 -3.164063 -7.851562 -0.875 -11.425781 c 2.273437 -3.589844 6.652344 -5.230469 10.722656 -4.042969 c 4.082031 1.1875 6.886719 4.925781 6.886719 9.171875 c -0.007813 0.019532 -0.007813 0.042969 0 0.0625 v 1.527344 c 0 0.574219 -0.304688 1.089844 -0.796875 1.375 c -0.496094 0.289062 -1.101563 0.289062 -1.59375 0 c -0.496094 -0.277344 -0.800782 -0.808594 -0.792969 -1.375 v -1.589844 c 0 -3.5 -2.875 -6.367187 -6.367187 -6.367187 c -3.503907 0 -6.367188 2.867187 -6.367188 6.367187 c 0 3.496094 2.863281 6.367188 6.367188 6.367188 c 1.660156 0 3.164062 -0.664063 4.300781 -1.714844 c 0.355469 0.421875 0.777343 0.789062 1.269531 1.074219 c 1.472656 0.851562 3.292969 0.851562 4.773438 0 c 1.476562 -0.851563 2.382812 -2.429688 2.390624 -4.136719 v -1.589844 c -0.007812 -5.660156 -3.746093 -10.640625 -9.171874 -12.230468 c -1.339844 -0.386719 -2.71875 -0.554688 -4.105469 -0.492188 z m 0.542969 9.539062 c 1.769531 0 3.183593 1.40625 3.183593 3.183594 c 0 1.773438 -1.414062 3.183594 -3.183593 3.183594 c -1.78125 0 -3.183594 -1.410156 -3.183594 -3.183594 c 0 -1.777344 1.402344 -3.183594 3.183594 -3.183594 z m 0 0" fill="#29282a" fill-opacity="0.521569"/>
    <path d="m 46.304688 11.238281 h 35.390624 c 1.777344 0 3.21875 1.535157 3.21875 3.425781 v 35.976563 c 0 1.894531 -1.441406 3.429687 -3.21875 3.429687 h -35.390624 c -1.777344 0 -3.21875 -1.535156 -3.21875 -3.429687 v -35.976563 c 0 -1.890624 1.441406 -3.425781 3.21875 -3.425781 z m 0 0" fill="url(#g)"/>
    <path d="m 46.304688 9.628906 h 35.390624 c 1.777344 0 3.21875 1.253906 3.21875 2.804688 v 29.4375 c 0 1.550781 -1.441406 2.804687 -3.21875 2.804687 h -35.390624 c -1.777344 0 -3.21875 -1.253906 -3.21875 -2.804687 v -29.4375 c 0 -1.550782 1.441406 -2.804688 3.21875 -2.804688 z m 0 0" fill="#8ff0a4"/>
    <path d="m 64 15.789062 c -7.015625 0 -12.734375 5.722657 -12.734375 12.734376 c 0 7.015624 5.71875 12.734374 12.734375 12.734374 s 12.734375 -5.71875 12.734375 -12.734374 c 0 -7.011719 -5.71875 -12.734376 -12.734375 -12.734376 z m 0 3.09375 c 5.347656 0 9.644531 4.296876 9.644531 9.640626 c 0 5.347656 -4.296875 9.644531 -9.644531 9.644531 z m 0 0" fill="#26a269" fill-opacity="0.639216"/>
    <path d="m 46.304688 48.085938 h 35.390624 c 1.777344 0 3.21875 1.535156 3.21875 3.425781 v 35.976562 c 0 1.894531 -1.441406 3.429688 -3.21875 3.429688 h -35.390624 c -1.777344 0 -3.21875 -1.535157 -3.21875 -3.429688 v -35.976562 c 0 -1.890625 1.441406 -3.425781 3.21875 -3.425781 z m 0 0" fill="url(#h)"/>
    <path d="m 46.304688 84.933594 h 35.390624 c 1.777344 0 3.21875 1.53125 3.21875 3.425781 v 35.976563 c 0 1.894531 -1.441406 3.429687 -3.21875 3.429687 h -35.390624 c -1.777344 0 -3.21875 -1.535156 -3.21875 -3.429687 v -35.976563 c 0 -1.894531 1.441406 -3.425781 3.21875 -3.425781 z m 0 0" fill="url(#i)"/>
    <path d="m 46.304688 83.324219 h 35.390624 c 1.777344 0 3.21875 1.253906 3.21875 2.804687 v 29.4375 c 0 1.550782 -1.441406 2.804688 -3.21875 2.804688 h -35.390624 c -1.777344 0 -3.21875 -1.253906 -3.21875 -2.804688 v -29.4375 c 0 -1.550781 1.441406 -2.804687 3.21875 -2.804687 z m 0 0" fill="#8d8d8d"/>
    <path d="m 57.632812 89.484375 c -2.617187 0 -4.773437 2.160156 -4.773437 4.777344 v 15.917969 c 0 2.617187 2.15625 4.773437 4.773437 4.773437 h 12.734376 c 2.617187 0 4.773437 -2.15625 4.773437 -4.773437 v -15.917969 c 0 -2.617188 -2.15625 -4.777344 -4.773437 -4.777344 z m 0 3.183594 h 12.734376 c 0.90625 0 1.589843 0.683593 1.589843 1.59375 v 6.367187 h -15.914062 v -6.367187 c 0 -0.910157 0.683593 -1.59375 1.589843 -1.59375 z m 3.921876 2.277343 c -0.03125 0 -0.0625 0.003907 -0.089844 0.011719 c -0.03125 0 -0.070313 0 -0.101563 0 c -0.339843 0.113281 -0.566406 0.4375 -0.546875 0.796875 v 0.101563 c 0 0.867187 0.722656 1.589843 1.589844 1.589843 h 3.183594 c 0.871094 0 1.59375 -0.722656 1.59375 -1.589843 v -0.101563 c 0.019531 -1.074218 -1.609375 -1.074218 -1.59375 0 v 0.101563 h -3.183594 v -0.101563 c 0.007812 -0.472656 -0.390625 -0.839844 -0.851562 -0.808594 z m -5.511719 7.273438 h 15.914062 v 6.367188 c 0 0.910156 -0.683593 1.59375 -1.589843 1.59375 h -12.734376 c -0.90625 0 -1.589843 -0.683594 -1.589843 -1.59375 z m 5.511719 2.277344 c -0.03125 0 -0.0625 0.003906 -0.089844 0.011718 c -0.03125 0 -0.070313 0 -0.101563 0 c -0.339843 0.113282 -0.566406 0.4375 -0.546875 0.796876 v 0.101562 c 0 0.867188 0.722656 1.589844 1.589844 1.589844 h 3.183594 c 0.871094 0 1.59375 -0.722656 1.59375 -1.589844 v -0.101562 c 0.019531 -1.074219 -1.609375 -1.074219 -1.59375 0 v 0.101562 h -3.183594 v -0.101562 c 0.007812 -0.472657 -0.390625 -0.839844 -0.851562 -0.808594 z m 0 0" fill="#29282a" fill-opacity="0.521569"/>
    <path d="m 3.21875 84.933594 h 35.390625 c 1.777344 0 3.21875 1.53125 3.21875 3.425781 v 35.976563 c 0 1.894531 -1.441406 3.429687 -3.21875 3.429687 h -35.390625 c -1.777344 0 -3.21875 -1.535156 -3.21875 -3.429687 v -35.976563 c 0 -1.894531 1.441406 -3.425781 3.21875 -3.425781 z m 0 0" fill="url(#j)"/>
    <path d="m 3.21875 83.324219 h 35.390625 c 1.777344 0 3.21875 1.253906 3.21875 2.804687 v 29.4375 c 0 1.550782 -1.441406 2.804688 -3.21875 2.804688 h -35.390625 c -1.777344 0 -3.21875 -1.253906 -3.21875 -2.804688 v -29.4375 c 0 -1.550781 1.441406 -2.804687 3.21875 -2.804687 z m 0 0" fill="#8ff0a4"/>
    <path d="m 13.75 96.648438 v 3.183593 h 3.058594 c -0.089844 0 0.132812 0.253907 0.132812 0.132813 v 1.46875 h -1.597656 c -2.730469 0 -4.824219 1.789062 -4.863281 3.953125 c -0.019531 1.082031 0.488281 2.171875 1.371093 2.902343 c 0.882813 0.730469 2.09375 1.113282 3.492188 1.113282 h 4.78125 v -9.4375 c 0 -1.867188 -1.410156 -3.316406 -3.316406 -3.316406 z m 1.59375 7.96875 h 1.597656 v 1.601562 h -1.597656 c -0.828125 0 -1.265625 -0.21875 -1.464844 -0.386719 c -0.199218 -0.164062 -0.214844 -0.273437 -0.214844 -0.386719 c 0.003907 -0.230468 0.136719 -0.828124 1.679688 -0.828124 z m 6.359375 -9.578126 v 14.363282 h 4.78125 c 1.496094 0 2.816406 -0.59375 3.660156 -1.527344 s 1.21875 -2.128906 1.203125 -3.289062 c -0.007812 -1.203126 -0.453125 -2.359376 -1.257812 -3.253907 c -0.839844 -0.917969 -2.140625 -1.519531 -3.605469 -1.519531 h -1.597656 v -4.773438 z m 3.183594 7.957032 h 1.597656 c 0.671875 0 0.996094 0.203125 1.253906 0.484375 c 0.257813 0.28125 0.421875 0.710937 0.425781 1.148437 c 0.007813 0.4375 -0.140624 0.84375 -0.382812 1.109375 c -0.238281 0.265625 -0.566406 0.480469 -1.296875 0.480469 h -1.597656 z m 0 0" fill="#26a269" fill-opacity="0.639216"/>
    <path d="m 46.304688 46.476562 h 35.390624 c 1.777344 0 3.21875 1.253907 3.21875 2.804688 v 29.4375 c 0 1.550781 -1.441406 2.804688 -3.21875 2.804688 h -35.390624 c -1.777344 0 -3.21875 -1.253907 -3.21875 -2.804688 v -29.4375 c 0 -1.550781 1.441406 -2.804688 3.21875 -2.804688 z m 0 0" fill="#8ff0a4"/>
    <path d="m 58.042969 53.113281 c -0.324219 -0.015625 -0.644531 0.035157 -0.933594 0.152344 c -0.769531 0.320313 -1.390625 1.152344 -1.390625 2.085937 v 17.507813 c 0 0.933594 0.632812 1.761719 1.402344 2.070313 c 0.765625 0.304687 1.800781 0.136718 2.4375 -0.539063 l 2.75 -2.90625 l 2.414062 4.828125 c 0.589844 1.179688 2.027344 1.660156 3.199219 1.074219 c 1.183594 -0.589844 1.660156 -2.027344 1.078125 -3.203125 l -2.257812 -4.507813 h 3.300781 c 0.933593 0 1.765625 -0.621093 2.078125 -1.390625 c 0.316406 -0.765625 0.171875 -1.792968 -0.484375 -2.453125 l -12.078125 -12.074219 c -0.410156 -0.410156 -0.96875 -0.621093 -1.515625 -0.644531 z m 0 0" fill="#26a269" fill-opacity="0.639216"/>
</svg>
